# Generated by CGame Mesh Generator
v 0.000000 0.000000 0.000000
v 0.000000 0.200000 0.000000
v 3.000000 0.000000 0.000000
v 3.000000 0.200000 0.000000
v 1.500000 0.000000 2.598076
v 1.500000 0.200000 2.598076
v -1.500000 0.000000 2.598076
v -1.500000 0.200000 2.598076
v -3.000000 0.000000 0.000000
v -3.000000 0.200000 0.000000
v -1.500000 0.000000 -2.598076
v -1.500000 0.200000 -2.598076
v 1.500000 0.000000 -2.598076
v 1.500000 0.200000 -2.598076
vt 0.500000 0.500000
vt 0.500000 0.500000
vt 1.000000 0.500000
vt 1.000000 0.500000
vt 0.750000 0.933013
vt 0.750000 0.933013
vt 0.250000 0.933013
vt 0.250000 0.933013
vt 0.000000 0.500000
vt 0.000000 0.500000
vt 0.250000 0.066987
vt 0.250000 0.066987
vt 0.750000 0.066987
vt 0.750000 0.066987
vn 0.000000 -1.000000 0.000000
vn 0.000000 1.000000 0.000000
vn 0.783349 -0.603023 0.150756
vn 0.783349 0.603023 -0.150756
vn 0.261116 -0.603023 0.753778
vn 0.522233 0.603023 0.603023
vn -0.522233 -0.603023 0.603023
vn -0.261116 0.603023 0.753778
vn -0.783349 -0.603023 -0.150756
vn -0.783349 0.603023 0.150756
vn -0.261116 -0.603023 -0.753778
vn -0.522233 0.603023 -0.603023
vn 0.522233 -0.603023 -0.603023
vn 0.261116 0.603023 -0.753778
usemtl default
f 1/1/1 3/3/3 5/5/5
f 2/2/2 6/6/6 4/4/4
f 3/3/3 4/4/4 6/6/6
f 3/3/3 6/6/6 5/5/5
f 1/1/1 5/5/5 7/7/7
f 2/2/2 8/8/8 6/6/6
f 5/5/5 6/6/6 8/8/8
f 5/5/5 8/8/8 7/7/7
f 1/1/1 7/7/7 9/9/9
f 2/2/2 10/10/10 8/8/8
f 7/7/7 8/8/8 10/10/10
f 7/7/7 10/10/10 9/9/9
f 1/1/1 9/9/9 11/11/11
f 2/2/2 12/12/12 10/10/10
f 9/9/9 10/10/10 12/12/12
f 9/9/9 12/12/12 11/11/11
f 1/1/1 11/11/11 13/13/13
f 2/2/2 14/14/14 12/12/12
f 11/11/11 12/12/12 14/14/14
f 11/11/11 14/14/14 13/13/13
f 1/1/1 13/13/13 3/3/3
f 2/2/2 4/4/4 14/14/14
f 13/13/13 14/14/14 4/4/4
f 13/13/13 4/4/4 3/3/3
