<svg width="1024" height="1024" xmlns="http://www.w3.org/2000/svg">
  <defs>
    <linearGradient id="primary_gradient" x1="0%" y1="0%" x2="100%" y2="100%">
      <stop offset="0%" stop-color="#95A5A6" />
      <stop offset="100%" stop-color="#BDC3C7" />
    </linearGradient>
    <linearGradient id="secondary_gradient" x1="0%" y1="100%" x2="100%" y2="0%">
      <stop offset="0%" stop-color="#E74C3C" />
      <stop offset="100%" stop-color="#34495E" />
    </linearGradient>
  </defs>
  <rect width="100%" height="100%" fill="#111"/>
  <polygon points="512.00,512.00 1024.00,512.00 768.00,68.59" fill="url(#primary_gradient)" stroke="#000" stroke-width="1.5" opacity="0.8"/>
  <polygon points="512.00,512.00 768.00,68.59 1024.00,512.00" fill="url(#secondary_gradient)" stroke="#000" stroke-width="1.5" opacity="0.8"/>
  <polygon points="1024.00,512.00 1024.00,512.00 768.00,68.59 768.00,68.59" fill="url(#primary_gradient)" stroke="#000" stroke-width="1.5" opacity="0.8"/>
  <polygon points="512.00,512.00 768.00,68.59 256.00,68.59" fill="url(#secondary_gradient)" stroke="#000" stroke-width="1.5" opacity="0.8"/>
  <polygon points="512.00,512.00 256.00,68.59 768.00,68.59" fill="url(#primary_gradient)" stroke="#000" stroke-width="1.5" opacity="0.8"/>
  <polygon points="768.00,68.59 768.00,68.59 256.00,68.59 256.00,68.59" fill="url(#secondary_gradient)" stroke="#000" stroke-width="1.5" opacity="0.8"/>
  <polygon points="512.00,512.00 256.00,68.59 0.00,512.00" fill="url(#primary_gradient)" stroke="#000" stroke-width="1.5" opacity="0.8"/>
  <polygon points="512.00,512.00 0.00,512.00 256.00,68.59" fill="url(#secondary_gradient)" stroke="#000" stroke-width="1.5" opacity="0.8"/>
  <polygon points="256.00,68.59 256.00,68.59 0.00,512.00 0.00,512.00" fill="url(#primary_gradient)" stroke="#000" stroke-width="1.5" opacity="0.8"/>
  <polygon points="512.00,512.00 0.00,512.00 256.00,955.41" fill="url(#secondary_gradient)" stroke="#000" stroke-width="1.5" opacity="0.8"/>
  <polygon points="512.00,512.00 256.00,955.41 0.00,512.00" fill="url(#primary_gradient)" stroke="#000" stroke-width="1.5" opacity="0.8"/>
  <polygon points="0.00,512.00 0.00,512.00 256.00,955.41 256.00,955.41" fill="url(#secondary_gradient)" stroke="#000" stroke-width="1.5" opacity="0.8"/>
  <polygon points="512.00,512.00 256.00,955.41 768.00,955.41" fill="url(#primary_gradient)" stroke="#000" stroke-width="1.5" opacity="0.8"/>
  <polygon points="512.00,512.00 768.00,955.41 256.00,955.41" fill="url(#secondary_gradient)" stroke="#000" stroke-width="1.5" opacity="0.8"/>
  <polygon points="256.00,955.41 256.00,955.41 768.00,955.41 768.00,955.41" fill="url(#primary_gradient)" stroke="#000" stroke-width="1.5" opacity="0.8"/>
  <polygon points="512.00,512.00 768.00,955.41 1024.00,512.00" fill="url(#secondary_gradient)" stroke="#000" stroke-width="1.5" opacity="0.8"/>
  <polygon points="512.00,512.00 1024.00,512.00 768.00,955.41" fill="url(#primary_gradient)" stroke="#000" stroke-width="1.5" opacity="0.8"/>
  <polygon points="768.00,955.41 768.00,955.41 1024.00,512.00 1024.00,512.00" fill="url(#secondary_gradient)" stroke="#000" stroke-width="1.5" opacity="0.8"/>
  <text x="10" y="30" fill="white" font-family="Arial" font-size="20" font-weight="bold">Landing Pad UV Layout</text>
  <text x="10" y="50" fill="#fff" font-family="Arial" font-size="12">This is the UV layout for the mesh. Edit this file to apply textures.</text>
</svg>
