<svg width="1024" height="1024" xmlns="http://www.w3.org/2000/svg">
  <defs>
    <radialGradient id="randomGradient" cx="50%" cy="50%" r="50%">
      <stop offset="0%" stop-color="#EBCA89" />
      <stop offset="50%" stop-color="#CC80FC" />
      <stop offset="100%" stop-color="#AAA6D8" />
    </radialGradient>
  </defs>
  <rect width="1024" height="1024" fill="url(#randomGradient)"/>
  <polygon points="0.0,1024.0 128.0,682.6666666666667 256.0,1024.0" fill="none" stroke="rgba(0,0,0,0.2)" stroke-width="2"/>
  <polygon points="256.0,1024.0 384.0,682.6666666666667 512.0,1024.0" fill="none" stroke="rgba(0,0,0,0.2)" stroke-width="2"/>
  <polygon points="512.0,1024.0 640.0,682.6666666666667 768.0,1024.0" fill="none" stroke="rgba(0,0,0,0.2)" stroke-width="2"/>
  <polygon points="768.0,1024.0 896.0,682.6666666666667 1024.0,1024.0" fill="none" stroke="rgba(0,0,0,0.2)" stroke-width="2"/>
  <polygon points="0.0,682.6666666666667 128.0,341.33333333333337 256.0,682.6666666666667" fill="none" stroke="rgba(0,0,0,0.2)" stroke-width="2"/>
  <polygon points="256.0,682.6666666666667 384.0,341.33333333333337 512.0,682.6666666666667" fill="none" stroke="rgba(0,0,0,0.2)" stroke-width="2"/>
  <polygon points="512.0,682.6666666666667 640.0,341.33333333333337 768.0,682.6666666666667" fill="none" stroke="rgba(0,0,0,0.2)" stroke-width="2"/>
  <polygon points="768.0,682.6666666666667 896.0,341.33333333333337 1024.0,682.6666666666667" fill="none" stroke="rgba(0,0,0,0.2)" stroke-width="2"/>
  <polygon points="0.0,341.33333333333337 128.0,0.0 256.0,341.33333333333337" fill="none" stroke="rgba(0,0,0,0.2)" stroke-width="2"/>
  <polygon points="256.0,341.33333333333337 384.0,0.0 512.0,341.33333333333337" fill="none" stroke="rgba(0,0,0,0.2)" stroke-width="2"/>
  <polygon points="512.0,341.33333333333337 640.0,0.0 768.0,341.33333333333337" fill="none" stroke="rgba(0,0,0,0.2)" stroke-width="2"/>
  <polygon points="768.0,341.33333333333337 896.0,0.0 1024.0,341.33333333333337" fill="none" stroke="rgba(0,0,0,0.2)" stroke-width="2"/>
</svg>
