<svg width="1024" height="1024" xmlns="http://www.w3.org/2000/svg">
  <defs>
    <radialGradient id="randomGradient" cx="50%" cy="50%" r="50%">
      <stop offset="0%" stop-color="#A7A7CD" />
      <stop offset="50%" stop-color="#E69ABE" />
      <stop offset="100%" stop-color="#DE80F2" />
    </radialGradient>
  </defs>
  <rect width="1024" height="1024" fill="url(#randomGradient)"/>
  <polygon points="0.0,1024.0 85.33333333333333,853.3333333333334 170.66666666666666,1024.0" fill="none" stroke="rgba(0,0,0,0.2)" stroke-width="2"/>
  <polygon points="170.66666666666666,1024.0 256.0,853.3333333333334 341.3333333333333,1024.0" fill="none" stroke="rgba(0,0,0,0.2)" stroke-width="2"/>
  <polygon points="341.3333333333333,1024.0 426.66666666666663,853.3333333333334 512.0,1024.0" fill="none" stroke="rgba(0,0,0,0.2)" stroke-width="2"/>
  <polygon points="512.0,1024.0 597.3333333333334,853.3333333333334 682.6666666666666,1024.0" fill="none" stroke="rgba(0,0,0,0.2)" stroke-width="2"/>
  <polygon points="682.6666666666666,1024.0 768.0,853.3333333333334 853.3333333333333,1024.0" fill="none" stroke="rgba(0,0,0,0.2)" stroke-width="2"/>
  <polygon points="853.3333333333333,1024.0 938.6666666666666,853.3333333333334 1023.9999999999999,1024.0" fill="none" stroke="rgba(0,0,0,0.2)" stroke-width="2"/>
  <polygon points="0.0,853.3333333333334 85.33333333333333,682.6666666666667 170.66666666666666,853.3333333333334" fill="none" stroke="rgba(0,0,0,0.2)" stroke-width="2"/>
  <polygon points="170.66666666666666,853.3333333333334 256.0,682.6666666666667 341.3333333333333,853.3333333333334" fill="none" stroke="rgba(0,0,0,0.2)" stroke-width="2"/>
  <polygon points="341.3333333333333,853.3333333333334 426.66666666666663,682.6666666666667 512.0,853.3333333333334" fill="none" stroke="rgba(0,0,0,0.2)" stroke-width="2"/>
  <polygon points="512.0,853.3333333333334 597.3333333333334,682.6666666666667 682.6666666666666,853.3333333333334" fill="none" stroke="rgba(0,0,0,0.2)" stroke-width="2"/>
  <polygon points="682.6666666666666,853.3333333333334 768.0,682.6666666666667 853.3333333333333,853.3333333333334" fill="none" stroke="rgba(0,0,0,0.2)" stroke-width="2"/>
  <polygon points="853.3333333333333,853.3333333333334 938.6666666666666,682.6666666666667 1023.9999999999999,853.3333333333334" fill="none" stroke="rgba(0,0,0,0.2)" stroke-width="2"/>
  <polygon points="0.0,682.6666666666667 85.33333333333333,512.0 170.66666666666666,682.6666666666667" fill="none" stroke="rgba(0,0,0,0.2)" stroke-width="2"/>
  <polygon points="170.66666666666666,682.6666666666667 256.0,512.0 341.3333333333333,682.6666666666667" fill="none" stroke="rgba(0,0,0,0.2)" stroke-width="2"/>
  <polygon points="341.3333333333333,682.6666666666667 426.66666666666663,512.0 512.0,682.6666666666667" fill="none" stroke="rgba(0,0,0,0.2)" stroke-width="2"/>
  <polygon points="512.0,682.6666666666667 597.3333333333334,512.0 682.6666666666666,682.6666666666667" fill="none" stroke="rgba(0,0,0,0.2)" stroke-width="2"/>
  <polygon points="682.6666666666666,682.6666666666667 768.0,512.0 853.3333333333333,682.6666666666667" fill="none" stroke="rgba(0,0,0,0.2)" stroke-width="2"/>
  <polygon points="853.3333333333333,682.6666666666667 938.6666666666666,512.0 1023.9999999999999,682.6666666666667" fill="none" stroke="rgba(0,0,0,0.2)" stroke-width="2"/>
  <polygon points="0.0,512.0 85.33333333333333,341.33333333333337 170.66666666666666,512.0" fill="none" stroke="rgba(0,0,0,0.2)" stroke-width="2"/>
  <polygon points="170.66666666666666,512.0 256.0,341.33333333333337 341.3333333333333,512.0" fill="none" stroke="rgba(0,0,0,0.2)" stroke-width="2"/>
  <polygon points="341.3333333333333,512.0 426.66666666666663,341.33333333333337 512.0,512.0" fill="none" stroke="rgba(0,0,0,0.2)" stroke-width="2"/>
  <polygon points="512.0,512.0 597.3333333333334,341.33333333333337 682.6666666666666,512.0" fill="none" stroke="rgba(0,0,0,0.2)" stroke-width="2"/>
  <polygon points="682.6666666666666,512.0 768.0,341.33333333333337 853.3333333333333,512.0" fill="none" stroke="rgba(0,0,0,0.2)" stroke-width="2"/>
  <polygon points="853.3333333333333,512.0 938.6666666666666,341.33333333333337 1023.9999999999999,512.0" fill="none" stroke="rgba(0,0,0,0.2)" stroke-width="2"/>
  <polygon points="0.0,341.33333333333337 85.33333333333333,170.66666666666674 170.66666666666666,341.33333333333337" fill="none" stroke="rgba(0,0,0,0.2)" stroke-width="2"/>
  <polygon points="170.66666666666666,341.33333333333337 256.0,170.66666666666674 341.3333333333333,341.33333333333337" fill="none" stroke="rgba(0,0,0,0.2)" stroke-width="2"/>
  <polygon points="341.3333333333333,341.33333333333337 426.66666666666663,170.66666666666674 512.0,341.33333333333337" fill="none" stroke="rgba(0,0,0,0.2)" stroke-width="2"/>
  <polygon points="512.0,341.33333333333337 597.3333333333334,170.66666666666674 682.6666666666666,341.33333333333337" fill="none" stroke="rgba(0,0,0,0.2)" stroke-width="2"/>
  <polygon points="682.6666666666666,341.33333333333337 768.0,170.66666666666674 853.3333333333333,341.33333333333337" fill="none" stroke="rgba(0,0,0,0.2)" stroke-width="2"/>
  <polygon points="853.3333333333333,341.33333333333337 938.6666666666666,170.66666666666674 1023.9999999999999,341.33333333333337" fill="none" stroke="rgba(0,0,0,0.2)" stroke-width="2"/>
  <polygon points="0.0,170.66666666666674 85.33333333333333,1.1368683772161603e-13 170.66666666666666,170.66666666666674" fill="none" stroke="rgba(0,0,0,0.2)" stroke-width="2"/>
  <polygon points="170.66666666666666,170.66666666666674 256.0,1.1368683772161603e-13 341.3333333333333,170.66666666666674" fill="none" stroke="rgba(0,0,0,0.2)" stroke-width="2"/>
  <polygon points="341.3333333333333,170.66666666666674 426.66666666666663,1.1368683772161603e-13 512.0,170.66666666666674" fill="none" stroke="rgba(0,0,0,0.2)" stroke-width="2"/>
  <polygon points="512.0,170.66666666666674 597.3333333333334,1.1368683772161603e-13 682.6666666666666,170.66666666666674" fill="none" stroke="rgba(0,0,0,0.2)" stroke-width="2"/>
  <polygon points="682.6666666666666,170.66666666666674 768.0,1.1368683772161603e-13 853.3333333333333,170.66666666666674" fill="none" stroke="rgba(0,0,0,0.2)" stroke-width="2"/>
  <polygon points="853.3333333333333,170.66666666666674 938.6666666666666,1.1368683772161603e-13 1023.9999999999999,170.66666666666674" fill="none" stroke="rgba(0,0,0,0.2)" stroke-width="2"/>
</svg>
