<svg width="1024" height="1024" xmlns="http://www.w3.org/2000/svg">
  <defs>
    <linearGradient id="primary_gradient" x1="0%" y1="0%" x2="100%" y2="100%">
      <stop offset="0%" stop-color="#95A5A6" />
      <stop offset="100%" stop-color="#3498DB" />
    </linearGradient>
    <linearGradient id="secondary_gradient" x1="0%" y1="100%" x2="100%" y2="0%">
      <stop offset="0%" stop-color="#F1C40F" />
      <stop offset="100%" stop-color="#2C3E50" />
    </linearGradient>
  </defs>
  <rect width="100%" height="100%" fill="#111"/>
  <polygon points="512.00,1024.00 128.00,1024.00 0.00,1024.00" fill="url(#primary_gradient)" stroke="#000" stroke-width="1.5" opacity="0.8"/>
  <polygon points="512.00,819.20 0.00,819.20 128.00,819.20" fill="url(#secondary_gradient)" stroke="#000" stroke-width="1.5" opacity="0.8"/>
  <polygon points="0.00,1024.00 128.00,1024.00 128.00,819.20 0.00,819.20" fill="url(#primary_gradient)" stroke="#000" stroke-width="1.5" opacity="0.8"/>
  <polygon points="512.00,1024.00 256.00,1024.00 128.00,1024.00" fill="url(#secondary_gradient)" stroke="#000" stroke-width="1.5" opacity="0.8"/>
  <polygon points="512.00,819.20 128.00,819.20 256.00,819.20" fill="url(#primary_gradient)" stroke="#000" stroke-width="1.5" opacity="0.8"/>
  <polygon points="128.00,1024.00 256.00,1024.00 256.00,819.20 128.00,819.20" fill="url(#secondary_gradient)" stroke="#000" stroke-width="1.5" opacity="0.8"/>
  <polygon points="512.00,1024.00 384.00,1024.00 256.00,1024.00" fill="url(#primary_gradient)" stroke="#000" stroke-width="1.5" opacity="0.8"/>
  <polygon points="512.00,819.20 256.00,819.20 384.00,819.20" fill="url(#secondary_gradient)" stroke="#000" stroke-width="1.5" opacity="0.8"/>
  <polygon points="256.00,1024.00 384.00,1024.00 384.00,819.20 256.00,819.20" fill="url(#primary_gradient)" stroke="#000" stroke-width="1.5" opacity="0.8"/>
  <polygon points="512.00,1024.00 512.00,1024.00 384.00,1024.00" fill="url(#secondary_gradient)" stroke="#000" stroke-width="1.5" opacity="0.8"/>
  <polygon points="512.00,819.20 384.00,819.20 512.00,819.20" fill="url(#primary_gradient)" stroke="#000" stroke-width="1.5" opacity="0.8"/>
  <polygon points="384.00,1024.00 512.00,1024.00 512.00,819.20 384.00,819.20" fill="url(#secondary_gradient)" stroke="#000" stroke-width="1.5" opacity="0.8"/>
  <polygon points="512.00,1024.00 640.00,1024.00 512.00,1024.00" fill="url(#primary_gradient)" stroke="#000" stroke-width="1.5" opacity="0.8"/>
  <polygon points="512.00,819.20 512.00,819.20 640.00,819.20" fill="url(#secondary_gradient)" stroke="#000" stroke-width="1.5" opacity="0.8"/>
  <polygon points="512.00,1024.00 640.00,1024.00 640.00,819.20 512.00,819.20" fill="url(#primary_gradient)" stroke="#000" stroke-width="1.5" opacity="0.8"/>
  <polygon points="512.00,1024.00 768.00,1024.00 640.00,1024.00" fill="url(#secondary_gradient)" stroke="#000" stroke-width="1.5" opacity="0.8"/>
  <polygon points="512.00,819.20 640.00,819.20 768.00,819.20" fill="url(#primary_gradient)" stroke="#000" stroke-width="1.5" opacity="0.8"/>
  <polygon points="640.00,1024.00 768.00,1024.00 768.00,819.20 640.00,819.20" fill="url(#secondary_gradient)" stroke="#000" stroke-width="1.5" opacity="0.8"/>
  <polygon points="512.00,1024.00 896.00,1024.00 768.00,1024.00" fill="url(#primary_gradient)" stroke="#000" stroke-width="1.5" opacity="0.8"/>
  <polygon points="512.00,819.20 768.00,819.20 896.00,819.20" fill="url(#secondary_gradient)" stroke="#000" stroke-width="1.5" opacity="0.8"/>
  <polygon points="768.00,1024.00 896.00,1024.00 896.00,819.20 768.00,819.20" fill="url(#primary_gradient)" stroke="#000" stroke-width="1.5" opacity="0.8"/>
  <polygon points="512.00,1024.00 0.00,1024.00 896.00,1024.00" fill="url(#secondary_gradient)" stroke="#000" stroke-width="1.5" opacity="0.8"/>
  <polygon points="512.00,819.20 896.00,819.20 0.00,819.20" fill="url(#primary_gradient)" stroke="#000" stroke-width="1.5" opacity="0.8"/>
  <polygon points="896.00,1024.00 0.00,1024.00 0.00,819.20 896.00,819.20" fill="url(#secondary_gradient)" stroke="#000" stroke-width="1.5" opacity="0.8"/>
  <polygon points="0.00,716.80 128.00,716.80 0.00,716.80" fill="url(#primary_gradient)" stroke="#000" stroke-width="1.5" opacity="0.8"/>
  <polygon points="0.00,614.40 0.00,614.40 128.00,614.40" fill="url(#secondary_gradient)" stroke="#000" stroke-width="1.5" opacity="0.8"/>
  <polygon points="0.00,716.80 128.00,716.80 128.00,614.40 0.00,614.40" fill="url(#primary_gradient)" stroke="#000" stroke-width="1.5" opacity="0.8"/>
  <polygon points="0.00,716.80 256.00,716.80 128.00,716.80" fill="url(#secondary_gradient)" stroke="#000" stroke-width="1.5" opacity="0.8"/>
  <polygon points="0.00,614.40 128.00,614.40 256.00,614.40" fill="url(#primary_gradient)" stroke="#000" stroke-width="1.5" opacity="0.8"/>
  <polygon points="128.00,716.80 256.00,716.80 256.00,614.40 128.00,614.40" fill="url(#secondary_gradient)" stroke="#000" stroke-width="1.5" opacity="0.8"/>
  <polygon points="0.00,716.80 384.00,716.80 256.00,716.80" fill="url(#primary_gradient)" stroke="#000" stroke-width="1.5" opacity="0.8"/>
  <polygon points="0.00,614.40 256.00,614.40 384.00,614.40" fill="url(#secondary_gradient)" stroke="#000" stroke-width="1.5" opacity="0.8"/>
  <polygon points="256.00,716.80 384.00,716.80 384.00,614.40 256.00,614.40" fill="url(#primary_gradient)" stroke="#000" stroke-width="1.5" opacity="0.8"/>
  <polygon points="0.00,716.80 512.00,716.80 384.00,716.80" fill="url(#secondary_gradient)" stroke="#000" stroke-width="1.5" opacity="0.8"/>
  <polygon points="0.00,614.40 384.00,614.40 512.00,614.40" fill="url(#primary_gradient)" stroke="#000" stroke-width="1.5" opacity="0.8"/>
  <polygon points="384.00,716.80 512.00,716.80 512.00,614.40 384.00,614.40" fill="url(#secondary_gradient)" stroke="#000" stroke-width="1.5" opacity="0.8"/>
  <polygon points="0.00,716.80 640.00,716.80 512.00,716.80" fill="url(#primary_gradient)" stroke="#000" stroke-width="1.5" opacity="0.8"/>
  <polygon points="0.00,614.40 512.00,614.40 640.00,614.40" fill="url(#secondary_gradient)" stroke="#000" stroke-width="1.5" opacity="0.8"/>
  <polygon points="512.00,716.80 640.00,716.80 640.00,614.40 512.00,614.40" fill="url(#primary_gradient)" stroke="#000" stroke-width="1.5" opacity="0.8"/>
  <polygon points="0.00,716.80 768.00,716.80 640.00,716.80" fill="url(#secondary_gradient)" stroke="#000" stroke-width="1.5" opacity="0.8"/>
  <polygon points="0.00,614.40 640.00,614.40 768.00,614.40" fill="url(#primary_gradient)" stroke="#000" stroke-width="1.5" opacity="0.8"/>
  <polygon points="640.00,716.80 768.00,716.80 768.00,614.40 640.00,614.40" fill="url(#secondary_gradient)" stroke="#000" stroke-width="1.5" opacity="0.8"/>
  <polygon points="0.00,716.80 896.00,716.80 768.00,716.80" fill="url(#primary_gradient)" stroke="#000" stroke-width="1.5" opacity="0.8"/>
  <polygon points="0.00,614.40 768.00,614.40 896.00,614.40" fill="url(#secondary_gradient)" stroke="#000" stroke-width="1.5" opacity="0.8"/>
  <polygon points="768.00,716.80 896.00,716.80 896.00,614.40 768.00,614.40" fill="url(#primary_gradient)" stroke="#000" stroke-width="1.5" opacity="0.8"/>
  <polygon points="0.00,716.80 0.00,716.80 896.00,716.80" fill="url(#secondary_gradient)" stroke="#000" stroke-width="1.5" opacity="0.8"/>
  <polygon points="0.00,614.40 896.00,614.40 0.00,614.40" fill="url(#primary_gradient)" stroke="#000" stroke-width="1.5" opacity="0.8"/>
  <polygon points="896.00,716.80 0.00,716.80 0.00,614.40 896.00,614.40" fill="url(#secondary_gradient)" stroke="#000" stroke-width="1.5" opacity="0.8"/>
  <polygon points="819.20,307.20 716.80,204.80 716.80,102.40" fill="url(#primary_gradient)" stroke="#000" stroke-width="1.5" opacity="0.8"/>
  <polygon points="716.80,204.80 614.40,307.20 716.80,102.40" fill="url(#secondary_gradient)" stroke="#000" stroke-width="1.5" opacity="0.8"/>
  <polygon points="614.40,307.20 716.80,409.60 716.80,102.40" fill="url(#primary_gradient)" stroke="#000" stroke-width="1.5" opacity="0.8"/>
  <polygon points="716.80,409.60 819.20,307.20 716.80,102.40" fill="url(#secondary_gradient)" stroke="#000" stroke-width="1.5" opacity="0.8"/>
  <text x="10" y="30" fill="white" font-family="Arial" font-size="20" font-weight="bold">Control Tower UV Layout</text>
  <text x="10" y="50" fill="#fff" font-family="Arial" font-size="12">This is the UV layout for the mesh. Edit this file to apply textures.</text>
</svg>
