<svg width="1024" height="1024" xmlns="http://www.w3.org/2000/svg">
  <defs>
    <linearGradient id="semantic_gradient" x1="0%" y1="0%" x2="100%" y2="100%">
      <stop offset="0%" stop-color="#AAB7B7" />
      <stop offset="100%" stop-color="#2979AF" />
    </linearGradient>
  </defs>
  <rect width="100%" height="100%" fill="#111"/>
  <polygon points="900.8028564453125,775.1897583007812 870.3462524414062,899.3770141601562 839.889404296875,775.1897583007812" fill="url(#semantic_gradient)" stroke="#000" stroke-width="1.5" opacity="0.8"/>
  <polygon points="816.0839233398438,766.4749145507812 753.2802734375,766.4749145507812 816.0839233398438,101.52851104736328" fill="url(#semantic_gradient)" stroke="#000" stroke-width="1.5" opacity="0.8"/>
  <polygon points="816.0839233398438,101.52851104736328 753.2802734375,766.4749145507812 753.2802734375,101.52851104736328" fill="url(#semantic_gradient)" stroke="#000" stroke-width="1.5" opacity="0.8"/>
  <polygon points="148.9851531982422,723.7719116210938 209.89857482910156,723.7719116210938 179.44175720214844,847.9591674804688" fill="url(#semantic_gradient)" stroke="#000" stroke-width="1.5" opacity="0.8"/>
  <polygon points="839.889404296875,775.1897583007812 870.3462524414062,899.3770141601562 783.6126098632812,794.0962524414062" fill="url(#semantic_gradient)" stroke="#000" stroke-width="1.5" opacity="0.8"/>
  <polygon points="753.2802734375,766.4749145507812 700.0377807617188,766.4749145507812 753.2802734375,101.52851104736328" fill="url(#semantic_gradient)" stroke="#000" stroke-width="1.5" opacity="0.8"/>
  <polygon points="753.2802734375,101.52851104736328 700.0377807617188,766.4749145507812 700.0377807617188,101.52851104736328" fill="url(#semantic_gradient)" stroke="#000" stroke-width="1.5" opacity="0.8"/>
  <polygon points="209.89857482910156,723.7719116210938 266.1754150390625,742.6783447265625 179.44175720214844,847.9591674804688" fill="url(#semantic_gradient)" stroke="#000" stroke-width="1.5" opacity="0.8"/>
  <polygon points="783.6126098632812,794.0962524414062 870.3462524414062,899.3770141601562 740.540283203125,829.03076171875" fill="url(#semantic_gradient)" stroke="#000" stroke-width="1.5" opacity="0.8"/>
  <polygon points="232.6295928955078,665.3821411132812 179.38706970214844,665.3821411132812 232.6295928955078,0.43574467301368713" fill="url(#semantic_gradient)" stroke="#000" stroke-width="1.5" opacity="0.8"/>
  <polygon points="232.6295928955078,0.43574467301368713 179.38706970214844,665.3821411132812 179.38706970214844,0.43574467301368713" fill="url(#semantic_gradient)" stroke="#000" stroke-width="1.5" opacity="0.8"/>
  <polygon points="266.1754150390625,742.6783447265625 309.247802734375,777.6128540039062 179.44175720214844,847.9591674804688" fill="url(#semantic_gradient)" stroke="#000" stroke-width="1.5" opacity="0.8"/>
  <polygon points="740.540283203125,829.03076171875 870.3462524414062,899.3770141601562 717.2297973632812,874.6748046875" fill="url(#semantic_gradient)" stroke="#000" stroke-width="1.5" opacity="0.8"/>
  <polygon points="179.38706970214844,665.3821411132812 116.58341979980469,665.3821411132812 179.38706970214844,0.43574467301368713" fill="url(#semantic_gradient)" stroke="#000" stroke-width="1.5" opacity="0.8"/>
  <polygon points="179.38706970214844,0.43574467301368713 116.58341979980469,665.3821411132812 116.58341979980469,0.43574467301368713" fill="url(#semantic_gradient)" stroke="#000" stroke-width="1.5" opacity="0.8"/>
  <polygon points="309.247802734375,777.6128540039062 332.5582275390625,823.2568969726562 179.44175720214844,847.9591674804688" fill="url(#semantic_gradient)" stroke="#000" stroke-width="1.5" opacity="0.8"/>
  <polygon points="717.2297973632812,874.6748046875 870.3462524414062,899.3770141601562 717.2297973632812,924.0794677734375" fill="url(#semantic_gradient)" stroke="#000" stroke-width="1.5" opacity="0.8"/>
  <polygon points="116.58341979980469,665.3821411132812 53.7797737121582,665.3821411132812 116.58341979980469,0.43574467301368713" fill="url(#semantic_gradient)" stroke="#000" stroke-width="1.5" opacity="0.8"/>
  <polygon points="116.58341979980469,0.43574467301368713 53.7797737121582,665.3821411132812 53.7797737121582,0.43574467301368713" fill="url(#semantic_gradient)" stroke="#000" stroke-width="1.5" opacity="0.8"/>
  <polygon points="332.5582275390625,823.2568969726562 332.5582275390625,872.66162109375 179.44175720214844,847.9591674804688" fill="url(#semantic_gradient)" stroke="#000" stroke-width="1.5" opacity="0.8"/>
  <polygon points="717.2297973632812,924.0794677734375 870.3462524414062,899.3770141601562 740.5404663085938,969.7235107421875" fill="url(#semantic_gradient)" stroke="#000" stroke-width="1.5" opacity="0.8"/>
  <polygon points="53.7797737121582,665.3821411132812 0.5372507572174072,665.3821411132812 53.7797737121582,0.43574467301368713" fill="url(#semantic_gradient)" stroke="#000" stroke-width="1.5" opacity="0.8"/>
  <polygon points="53.7797737121582,0.43574467301368713 0.5372507572174072,665.3821411132812 0.5372507572174072,0.43574467301368713" fill="url(#semantic_gradient)" stroke="#000" stroke-width="1.5" opacity="0.8"/>
  <polygon points="332.5582275390625,872.66162109375 309.24761962890625,918.3056640625 179.44175720214844,847.9591674804688" fill="url(#semantic_gradient)" stroke="#000" stroke-width="1.5" opacity="0.8"/>
  <polygon points="740.5404663085938,969.7235107421875 870.3462524414062,899.3770141601562 783.6129150390625,1004.657958984375" fill="url(#semantic_gradient)" stroke="#000" stroke-width="1.5" opacity="0.8"/>
  <polygon points="233.70408630371094,724.6434326171875 286.9466247558594,724.6434326171875 233.70408630371094,59.697021484375" fill="url(#semantic_gradient)" stroke="#000" stroke-width="1.5" opacity="0.8"/>
  <polygon points="233.70408630371094,59.697021484375 286.9466247558594,724.6434326171875 286.9466247558594,59.697021484375" fill="url(#semantic_gradient)" stroke="#000" stroke-width="1.5" opacity="0.8"/>
  <polygon points="309.24761962890625,918.3056640625 266.17510986328125,953.2401123046875 179.44175720214844,847.9591674804688" fill="url(#semantic_gradient)" stroke="#000" stroke-width="1.5" opacity="0.8"/>
  <polygon points="783.6129150390625,1004.657958984375 870.3462524414062,899.3770141601562 839.8897094726562,1023.5642700195312" fill="url(#semantic_gradient)" stroke="#000" stroke-width="1.5" opacity="0.8"/>
  <polygon points="286.9466247558594,724.6434326171875 349.7502746582031,724.6434326171875 286.9466247558594,59.697021484375" fill="url(#semantic_gradient)" stroke="#000" stroke-width="1.5" opacity="0.8"/>
  <polygon points="286.9466247558594,59.697021484375 349.7502746582031,724.6434326171875 349.7502746582031,59.697021484375" fill="url(#semantic_gradient)" stroke="#000" stroke-width="1.5" opacity="0.8"/>
  <polygon points="266.17510986328125,953.2401123046875 209.89837646484375,972.1463623046875 179.44175720214844,847.9591674804688" fill="url(#semantic_gradient)" stroke="#000" stroke-width="1.5" opacity="0.8"/>
  <polygon points="839.8897094726562,1023.5642700195312 870.3462524414062,899.3770141601562 900.8031005859375,1023.5642700195312" fill="url(#semantic_gradient)" stroke="#000" stroke-width="1.5" opacity="0.8"/>
  <polygon points="349.7502746582031,724.6434326171875 412.55389404296875,724.6434326171875 349.7502746582031,59.697021484375" fill="url(#semantic_gradient)" stroke="#000" stroke-width="1.5" opacity="0.8"/>
  <polygon points="349.7502746582031,59.697021484375 412.55389404296875,724.6434326171875 412.55389404296875,59.697021484375" fill="url(#semantic_gradient)" stroke="#000" stroke-width="1.5" opacity="0.8"/>
  <polygon points="209.89837646484375,972.1463623046875 148.98495483398438,972.1463623046875 179.44175720214844,847.9591674804688" fill="url(#semantic_gradient)" stroke="#000" stroke-width="1.5" opacity="0.8"/>
  <polygon points="900.8031005859375,1023.5642700195312 870.3462524414062,899.3770141601562 957.0799560546875,1004.6578979492188" fill="url(#semantic_gradient)" stroke="#000" stroke-width="1.5" opacity="0.8"/>
  <polygon points="412.55389404296875,724.6434326171875 465.7964172363281,724.6434326171875 412.55389404296875,59.697021484375" fill="url(#semantic_gradient)" stroke="#000" stroke-width="1.5" opacity="0.8"/>
  <polygon points="412.55389404296875,59.697021484375 465.7964172363281,724.6434326171875 465.7964172363281,59.697021484375" fill="url(#semantic_gradient)" stroke="#000" stroke-width="1.5" opacity="0.8"/>
  <polygon points="148.98495483398438,972.1463623046875 92.70812225341797,953.239990234375 179.44175720214844,847.9591674804688" fill="url(#semantic_gradient)" stroke="#000" stroke-width="1.5" opacity="0.8"/>
  <polygon points="957.0799560546875,1004.6578979492188 870.3462524414062,899.3770141601562 1000.1522827148438,969.7233276367188" fill="url(#semantic_gradient)" stroke="#000" stroke-width="1.5" opacity="0.8"/>
  <polygon points="466.8709411621094,921.5999755859375 520.1134643554688,921.5999755859375 466.8709411621094,256.65362548828125" fill="url(#semantic_gradient)" stroke="#000" stroke-width="1.5" opacity="0.8"/>
  <polygon points="466.8709411621094,256.65362548828125 520.1134643554688,921.5999755859375 520.1134643554688,256.65362548828125" fill="url(#semantic_gradient)" stroke="#000" stroke-width="1.5" opacity="0.8"/>
  <polygon points="92.70812225341797,953.239990234375 49.635738372802734,918.305419921875 179.44175720214844,847.9591674804688" fill="url(#semantic_gradient)" stroke="#000" stroke-width="1.5" opacity="0.8"/>
  <polygon points="1000.1522827148438,969.7233276367188 870.3462524414062,899.3770141601562 1023.4627685546875,924.0792846679688" fill="url(#semantic_gradient)" stroke="#000" stroke-width="1.5" opacity="0.8"/>
  <polygon points="520.1134643554688,921.5999755859375 582.9171142578125,921.5999755859375 520.1134643554688,256.65362548828125" fill="url(#semantic_gradient)" stroke="#000" stroke-width="1.5" opacity="0.8"/>
  <polygon points="520.1134643554688,256.65362548828125 582.9171142578125,921.5999755859375 582.9171142578125,256.65362548828125" fill="url(#semantic_gradient)" stroke="#000" stroke-width="1.5" opacity="0.8"/>
  <polygon points="49.635738372802734,918.305419921875 26.325288772583008,872.661376953125 179.44175720214844,847.9591674804688" fill="url(#semantic_gradient)" stroke="#000" stroke-width="1.5" opacity="0.8"/>
  <polygon points="1023.4627685546875,924.0792846679688 870.3462524414062,899.3770141601562 1023.4627685546875,874.674560546875" fill="url(#semantic_gradient)" stroke="#000" stroke-width="1.5" opacity="0.8"/>
  <polygon points="582.9171142578125,921.5999755859375 645.7207641601562,921.5999755859375 582.9171142578125,256.65362548828125" fill="url(#semantic_gradient)" stroke="#000" stroke-width="1.5" opacity="0.8"/>
  <polygon points="582.9171142578125,256.65362548828125 645.7207641601562,921.5999755859375 645.7207641601562,256.65362548828125" fill="url(#semantic_gradient)" stroke="#000" stroke-width="1.5" opacity="0.8"/>
  <polygon points="26.325288772583008,872.661376953125 26.325288772583008,823.2567138671875 179.44175720214844,847.9591674804688" fill="url(#semantic_gradient)" stroke="#000" stroke-width="1.5" opacity="0.8"/>
  <polygon points="1023.4627685546875,874.674560546875 870.3462524414062,899.3770141601562 1000.152099609375,829.0304565429688" fill="url(#semantic_gradient)" stroke="#000" stroke-width="1.5" opacity="0.8"/>
  <polygon points="645.7207641601562,921.5999755859375 698.9632568359375,921.5999755859375 645.7207641601562,256.65362548828125" fill="url(#semantic_gradient)" stroke="#000" stroke-width="1.5" opacity="0.8"/>
  <polygon points="645.7207641601562,256.65362548828125 698.9632568359375,921.5999755859375 698.9632568359375,256.65362548828125" fill="url(#semantic_gradient)" stroke="#000" stroke-width="1.5" opacity="0.8"/>
  <polygon points="26.325288772583008,823.2567138671875 49.635948181152344,777.6126708984375 179.44175720214844,847.9591674804688" fill="url(#semantic_gradient)" stroke="#000" stroke-width="1.5" opacity="0.8"/>
  <polygon points="1000.152099609375,829.0304565429688 870.3462524414062,899.3770141601562 957.07958984375,794.0960693359375" fill="url(#semantic_gradient)" stroke="#000" stroke-width="1.5" opacity="0.8"/>
  <polygon points="932.130126953125,766.4749145507812 878.8875732421875,766.4749145507812 932.130126953125,101.52851104736328" fill="url(#semantic_gradient)" stroke="#000" stroke-width="1.5" opacity="0.8"/>
  <polygon points="932.130126953125,101.52851104736328 878.8875732421875,766.4749145507812 878.8875732421875,101.52851104736328" fill="url(#semantic_gradient)" stroke="#000" stroke-width="1.5" opacity="0.8"/>
  <polygon points="49.635948181152344,777.6126708984375 92.70843505859375,742.6781616210938 179.44175720214844,847.9591674804688" fill="url(#semantic_gradient)" stroke="#000" stroke-width="1.5" opacity="0.8"/>
  <polygon points="957.07958984375,794.0960693359375 870.3462524414062,899.3770141601562 900.8028564453125,775.1897583007812" fill="url(#semantic_gradient)" stroke="#000" stroke-width="1.5" opacity="0.8"/>
  <polygon points="878.8875732421875,766.4749145507812 816.0839233398438,766.4749145507812 878.8875732421875,101.52851104736328" fill="url(#semantic_gradient)" stroke="#000" stroke-width="1.5" opacity="0.8"/>
  <polygon points="878.8875732421875,101.52851104736328 816.0839233398438,766.4749145507812 816.0839233398438,101.52851104736328" fill="url(#semantic_gradient)" stroke="#000" stroke-width="1.5" opacity="0.8"/>
  <polygon points="92.70843505859375,742.6781616210938 148.9851531982422,723.7719116210938 179.44175720214844,847.9591674804688" fill="url(#semantic_gradient)" stroke="#000" stroke-width="1.5" opacity="0.8"/>
  <text x="10" y="30" fill="white" font-family="Arial" font-size="20" font-weight="bold">Control Tower UV Layout</text>
  <text x="10" y="50" fill="#fff" font-family="Arial" font-size="12">This is the UV layout for the mesh. Edit this file to apply textures.</text>
</svg>
