# Generated by CGame Clean Asset Pipeline
v 0.000000 0.000000 1.500000
v -0.800000 0.300000 -1.000000
v 0.800000 0.300000 -1.000000
v -0.800000 -0.300000 -1.000000
v 0.800000 -0.300000 -1.000000
v -0.300000 -0.100000 -1.500000
v 0.300000 -0.100000 -1.500000
vt 0.500000 1.000000
vt 0.000000 0.500000
vt 1.000000 0.500000
vt 0.000000 0.200000
vt 1.000000 0.200000
vt 0.250000 0.000000
vt 0.750000 0.000000
vn -0.000000 -0.000000 1.000000
vn -0.638538 0.665659 -0.386223
vn 0.638538 0.665659 -0.386223
vn -0.406248 -0.819535 -0.404134
vn 0.406248 -0.819535 -0.404134
vn 0.000000 -0.928477 -0.371391
vn 0.000000 -0.928477 -0.371391
usemtl default
f 1/1/1 3/3/3 2/2/2
f 1/1/1 4/4/4 5/5/5
f 1/1/1 2/2/2 4/4/4
f 1/1/1 5/5/5 3/3/3
f 2/2/2 3/3/3 5/5/5 4/4/4
f 4/4/4 6/6/6 7/7/7 5/5/5
