# Generated by CGame Mesh Generator
v -0.525731 0.850651 0.000000
v 0.525731 0.850651 0.000000
v -0.525731 -0.850651 0.000000
v 0.525731 -0.850651 0.000000
v 0.000000 -0.525731 0.850651
v 0.000000 0.525731 0.850651
v 0.000000 -0.525731 -0.850651
v 0.000000 0.525731 -0.850651
v 0.850651 0.000000 -0.525731
v 0.850651 0.000000 0.525731
v -0.850651 0.000000 -0.525731
v -0.850651 0.000000 0.525731
vt 0.250000 0.823792
vt 0.750000 0.823792
vt 0.250000 0.176208
vt 0.750000 0.176208
vt 0.500000 0.323792
vt 0.500000 0.676208
vt 1.000000 0.323792
vt 1.000000 0.676208
vt 0.838104 0.500000
vt 0.661896 0.500000
vt 0.161896 0.500000
vt 0.338104 0.500000
vn -0.525731 0.850651 -0.000000
vn 0.525731 0.850651 -0.000000
vn -0.525731 -0.850651 -0.000000
vn 0.525731 -0.850651 -0.000000
vn -0.000000 -0.525731 0.850651
vn 0.000000 0.525731 0.850651
vn -0.000000 -0.525731 -0.850651
vn 0.000000 0.525731 -0.850651
vn 0.850651 -0.000000 -0.525731
vn 0.850651 -0.000000 0.525731
vn -0.850651 -0.000000 -0.525731
vn -0.850651 -0.000000 0.525731
usemtl default
f 1/1/1 12/12/12 6/6/6
f 1/1/1 6/6/6 2/2/2
f 1/1/1 2/2/2 8/8/8
f 1/1/1 8/8/8 11/11/11
f 1/1/1 11/11/11 12/12/12
f 2/2/2 6/6/6 10/10/10
f 6/6/6 12/12/12 5/5/5
f 12/12/12 11/11/11 3/3/3
f 11/11/11 8/8/8 7/7/7
f 8/8/8 2/2/2 9/9/9
f 4/4/4 10/10/10 5/5/5
f 4/4/4 5/5/5 3/3/3
f 4/4/4 3/3/3 7/7/7
f 4/4/4 7/7/7 9/9/9
f 4/4/4 9/9/9 10/10/10
f 5/5/5 10/10/10 6/6/6
f 3/3/3 5/5/5 12/12/12
f 7/7/7 3/3/3 11/11/11
f 9/9/9 7/7/7 8/8/8
f 10/10/10 9/9/9 2/2/2
