# Generated by SIGNAL Clean Asset Pipeline
v 0.000000 3.000000 0.000000
v 0.000000 3.000000 0.000000
v 0.000000 3.000000 0.000000
v -0.000000 3.000000 0.000000
v -0.000000 3.000000 0.000000
v -0.000000 3.000000 -0.000000
v -0.000000 3.000000 -0.000000
v 0.000000 3.000000 -0.000000
v 1.500000 2.598076 0.000000
v 1.060660 2.598076 1.060660
v 0.000000 2.598076 1.500000
v -1.060660 2.598076 1.060660
v -1.500000 2.598076 0.000000
v -1.060660 2.598076 -1.060660
v -0.000000 2.598076 -1.500000
v 1.060660 2.598076 -1.060660
v 2.598076 1.500000 0.000000
v 1.837117 1.500000 1.837117
v 0.000000 1.500000 2.598076
v -1.837117 1.500000 1.837117
v -2.598076 1.500000 0.000000
v -1.837117 1.500000 -1.837117
v -0.000000 1.500000 -2.598076
v 1.837117 1.500000 -1.837117
v 3.000000 0.000000 0.000000
v 2.121320 0.000000 2.121320
v 0.000000 0.000000 3.000000
v -2.121320 0.000000 2.121320
v -3.000000 0.000000 0.000000
v -2.121320 0.000000 -2.121320
v -0.000000 0.000000 -3.000000
v 2.121320 0.000000 -2.121320
v 2.598076 -1.500000 0.000000
v 1.837117 -1.500000 1.837117
v 0.000000 -1.500000 2.598076
v -1.837117 -1.500000 1.837117
v -2.598076 -1.500000 0.000000
v -1.837117 -1.500000 -1.837117
v -0.000000 -1.500000 -2.598076
v 1.837117 -1.500000 -1.837117
v 1.500000 -2.598076 0.000000
v 1.060660 -2.598076 1.060660
v 0.000000 -2.598076 1.500000
v -1.060660 -2.598076 1.060660
v -1.500000 -2.598076 0.000000
v -1.060660 -2.598076 -1.060660
v -0.000000 -2.598076 -1.500000
v 1.060660 -2.598076 -1.060660
v 0.000000 -3.000000 0.000000
v 0.000000 -3.000000 0.000000
v 0.000000 -3.000000 0.000000
v -0.000000 -3.000000 0.000000
v -0.000000 -3.000000 0.000000
v -0.000000 -3.000000 -0.000000
v -0.000000 -3.000000 -0.000000
v 0.000000 -3.000000 -0.000000
vt 0.000000 0.000000
vt 0.125000 0.000000
vt 0.250000 0.000000
vt 0.375000 0.000000
vt 0.500000 0.000000
vt 0.625000 0.000000
vt 0.750000 0.000000
vt 0.875000 0.000000
vt 0.000000 0.166667
vt 0.125000 0.166667
vt 0.250000 0.166667
vt 0.375000 0.166667
vt 0.500000 0.166667
vt 0.625000 0.166667
vt 0.750000 0.166667
vt 0.875000 0.166667
vt 0.000000 0.333333
vt 0.125000 0.333333
vt 0.250000 0.333333
vt 0.375000 0.333333
vt 0.500000 0.333333
vt 0.625000 0.333333
vt 0.750000 0.333333
vt 0.875000 0.333333
vt 0.000000 0.500000
vt 0.125000 0.500000
vt 0.250000 0.500000
vt 0.375000 0.500000
vt 0.500000 0.500000
vt 0.625000 0.500000
vt 0.750000 0.500000
vt 0.875000 0.500000
vt 0.000000 0.666667
vt 0.125000 0.666667
vt 0.250000 0.666667
vt 0.375000 0.666667
vt 0.500000 0.666667
vt 0.625000 0.666667
vt 0.750000 0.666667
vt 0.875000 0.666667
vt 0.000000 0.833333
vt 0.125000 0.833333
vt 0.250000 0.833333
vt 0.375000 0.833333
vt 0.500000 0.833333
vt 0.625000 0.833333
vt 0.750000 0.833333
vt 0.875000 0.833333
vt 0.000000 1.000000
vt 0.125000 1.000000
vt 0.250000 1.000000
vt 0.375000 1.000000
vt 0.500000 1.000000
vt 0.625000 1.000000
vt 0.750000 1.000000
vt 0.875000 1.000000
vn -0.257344 -0.960422 -0.106596
vn -0.106596 -0.960422 -0.257344
vn 0.106596 -0.960422 -0.257344
vn 0.257344 -0.960422 -0.106596
vn 0.257344 -0.960422 0.106596
vn 0.106596 -0.960422 0.257344
vn -0.106596 -0.960422 0.257344
vn -0.257344 -0.960422 0.106596
vn -0.540835 -0.839014 -0.059605
vn -0.340282 -0.839014 -0.424575
vn 0.059605 -0.839014 -0.540835
vn 0.424575 -0.839014 -0.340282
vn 0.540835 -0.839014 0.059605
vn 0.340282 -0.839014 0.424575
vn -0.059605 -0.839014 0.540835
vn -0.424575 -0.839014 0.340282
vn -0.863683 -0.503766 -0.016517
vn -0.599036 -0.503765 -0.622395
vn 0.016517 -0.503766 -0.863683
vn 0.622395 -0.503765 -0.599036
vn 0.863683 -0.503766 0.016517
vn 0.599036 -0.503765 0.622395
vn -0.016517 -0.503766 0.863683
vn -0.622395 -0.503765 0.599036
vn -1.000000 -0.000000 0.000000
vn -0.707107 -0.000000 -0.707107
vn 0.000000 -0.000000 -1.000000
vn 0.707107 -0.000000 -0.707107
vn 1.000000 -0.000000 0.000000
vn 0.707107 -0.000000 0.707107
vn -0.000000 -0.000000 1.000000
vn -0.707107 -0.000000 0.707107
vn -0.863683 0.503766 0.016517
vn -0.622395 0.503766 -0.599036
vn -0.016517 0.503766 -0.863683
vn 0.599036 0.503766 -0.622395
vn 0.863683 0.503766 -0.016517
vn 0.622395 0.503766 0.599036
vn 0.016517 0.503766 0.863683
vn -0.599036 0.503766 0.622395
vn -0.495053 0.867450 0.049532
vn -0.374555 0.868135 -0.325653
vn -0.049532 0.867450 -0.495053
vn 0.325653 0.868135 -0.374555
vn 0.495053 0.867450 -0.049532
vn 0.376180 0.874622 0.305820
vn 0.049532 0.867450 0.495053
vn -0.305820 0.874622 0.376180
vn -0.213849 0.973840 0.076837
vn -0.213676 0.969921 -0.116604
vn -0.075773 0.964577 -0.252687
vn 0.116604 0.969921 -0.213676
vn 0.252687 0.964577 -0.075773
vn 0.213849 0.973840 0.076837
vn 0.076837 0.973840 0.213849
vn -0.076837 0.973840 0.213849
usemtl default
f 1/1/1 9/9/9 10/10/10
f 1/1/1 10/10/10 2/2/2
f 2/2/2 10/10/10 11/11/11
f 2/2/2 11/11/11 3/3/3
f 3/3/3 11/11/11 12/12/12
f 3/3/3 12/12/12 4/4/4
f 4/4/4 12/12/12 13/13/13
f 4/4/4 13/13/13 5/5/5
f 5/5/5 13/13/13 14/14/14
f 5/5/5 14/14/14 6/6/6
f 6/6/6 14/14/14 15/15/15
f 6/6/6 15/15/15 7/7/7
f 7/7/7 15/15/15 16/16/16
f 7/7/7 16/16/16 8/8/8
f 8/8/8 16/16/16 9/9/9
f 8/8/8 9/9/9 1/1/1
f 9/9/9 17/17/17 18/18/18
f 9/9/9 18/18/18 10/10/10
f 10/10/10 18/18/18 19/19/19
f 10/10/10 19/19/19 11/11/11
f 11/11/11 19/19/19 20/20/20
f 11/11/11 20/20/20 12/12/12
f 12/12/12 20/20/20 21/21/21
f 12/12/12 21/21/21 13/13/13
f 13/13/13 21/21/21 22/22/22
f 13/13/13 22/22/22 14/14/14
f 14/14/14 22/22/22 23/23/23
f 14/14/14 23/23/23 15/15/15
f 15/15/15 23/23/23 24/24/24
f 15/15/15 24/24/24 16/16/16
f 16/16/16 24/24/24 17/17/17
f 16/16/16 17/17/17 9/9/9
f 17/17/17 25/25/25 26/26/26
f 17/17/17 26/26/26 18/18/18
f 18/18/18 26/26/26 27/27/27
f 18/18/18 27/27/27 19/19/19
f 19/19/19 27/27/27 28/28/28
f 19/19/19 28/28/28 20/20/20
f 20/20/20 28/28/28 29/29/29
f 20/20/20 29/29/29 21/21/21
f 21/21/21 29/29/29 30/30/30
f 21/21/21 30/30/30 22/22/22
f 22/22/22 30/30/30 31/31/31
f 22/22/22 31/31/31 23/23/23
f 23/23/23 31/31/31 32/32/32
f 23/23/23 32/32/32 24/24/24
f 24/24/24 32/32/32 25/25/25
f 24/24/24 25/25/25 17/17/17
f 25/25/25 33/33/33 34/34/34
f 25/25/25 34/34/34 26/26/26
f 26/26/26 34/34/34 35/35/35
f 26/26/26 35/35/35 27/27/27
f 27/27/27 35/35/35 36/36/36
f 27/27/27 36/36/36 28/28/28
f 28/28/28 36/36/36 37/37/37
f 28/28/28 37/37/37 29/29/29
f 29/29/29 37/37/37 38/38/38
f 29/29/29 38/38/38 30/30/30
f 30/30/30 38/38/38 39/39/39
f 30/30/30 39/39/39 31/31/31
f 31/31/31 39/39/39 40/40/40
f 31/31/31 40/40/40 32/32/32
f 32/32/32 40/40/40 33/33/33
f 32/32/32 33/33/33 25/25/25
f 33/33/33 41/41/41 42/42/42
f 33/33/33 42/42/42 34/34/34
f 34/34/34 42/42/42 43/43/43
f 34/34/34 43/43/43 35/35/35
f 35/35/35 43/43/43 44/44/44
f 35/35/35 44/44/44 36/36/36
f 36/36/36 44/44/44 45/45/45
f 36/36/36 45/45/45 37/37/37
f 37/37/37 45/45/45 46/46/46
f 37/37/37 46/46/46 38/38/38
f 38/38/38 46/46/46 47/47/47
f 38/38/38 47/47/47 39/39/39
f 39/39/39 47/47/47 48/48/48
f 39/39/39 48/48/48 40/40/40
f 40/40/40 48/48/48 41/41/41
f 40/40/40 41/41/41 33/33/33
f 41/41/41 49/49/49 50/50/50
f 41/41/41 50/50/50 42/42/42
f 42/42/42 50/50/50 51/51/51
f 42/42/42 51/51/51 43/43/43
f 43/43/43 51/51/51 52/52/52
f 43/43/43 52/52/52 44/44/44
f 44/44/44 52/52/52 53/53/53
f 44/44/44 53/53/53 45/45/45
f 45/45/45 53/53/53 54/54/54
f 45/45/45 54/54/54 46/46/46
f 46/46/46 54/54/54 55/55/55
f 46/46/46 55/55/55 47/47/47
f 47/47/47 55/55/55 56/56/56
f 47/47/47 56/56/56 48/48/48
f 48/48/48 56/56/56 49/49/49
f 48/48/48 49/49/49 41/41/41
