<svg width="1024" height="1024" xmlns="http://www.w3.org/2000/svg">
  <defs>
    <linearGradient id="primary_gradient" x1="0%" y1="0%" x2="100%" y2="100%">
      <stop offset="0%" stop-color="#FFD700" />
      <stop offset="100%" stop-color="#FFA500" />
    </linearGradient>
    <linearGradient id="secondary_gradient" x1="0%" y1="100%" x2="100%" y2="0%">
      <stop offset="0%" stop-color="#FF6B35" />
      <stop offset="100%" stop-color="#FFFF99" />
    </linearGradient>
  </defs>
  <rect width="100%" height="100%" fill="#111"/>
  <polygon points="0.00,1024.00 0.00,853.33 128.00,853.33" fill="url(#primary_gradient)" stroke="#000" stroke-width="1.5" opacity="0.8"/>
  <polygon points="0.00,1024.00 128.00,853.33 128.00,1024.00" fill="url(#secondary_gradient)" stroke="#000" stroke-width="1.5" opacity="0.8"/>
  <polygon points="128.00,1024.00 128.00,853.33 256.00,853.33" fill="url(#primary_gradient)" stroke="#000" stroke-width="1.5" opacity="0.8"/>
  <polygon points="128.00,1024.00 256.00,853.33 256.00,1024.00" fill="url(#secondary_gradient)" stroke="#000" stroke-width="1.5" opacity="0.8"/>
  <polygon points="256.00,1024.00 256.00,853.33 384.00,853.33" fill="url(#primary_gradient)" stroke="#000" stroke-width="1.5" opacity="0.8"/>
  <polygon points="256.00,1024.00 384.00,853.33 384.00,1024.00" fill="url(#secondary_gradient)" stroke="#000" stroke-width="1.5" opacity="0.8"/>
  <polygon points="384.00,1024.00 384.00,853.33 512.00,853.33" fill="url(#primary_gradient)" stroke="#000" stroke-width="1.5" opacity="0.8"/>
  <polygon points="384.00,1024.00 512.00,853.33 512.00,1024.00" fill="url(#secondary_gradient)" stroke="#000" stroke-width="1.5" opacity="0.8"/>
  <polygon points="512.00,1024.00 512.00,853.33 640.00,853.33" fill="url(#primary_gradient)" stroke="#000" stroke-width="1.5" opacity="0.8"/>
  <polygon points="512.00,1024.00 640.00,853.33 640.00,1024.00" fill="url(#secondary_gradient)" stroke="#000" stroke-width="1.5" opacity="0.8"/>
  <polygon points="640.00,1024.00 640.00,853.33 768.00,853.33" fill="url(#primary_gradient)" stroke="#000" stroke-width="1.5" opacity="0.8"/>
  <polygon points="640.00,1024.00 768.00,853.33 768.00,1024.00" fill="url(#secondary_gradient)" stroke="#000" stroke-width="1.5" opacity="0.8"/>
  <polygon points="768.00,1024.00 768.00,853.33 896.00,853.33" fill="url(#primary_gradient)" stroke="#000" stroke-width="1.5" opacity="0.8"/>
  <polygon points="768.00,1024.00 896.00,853.33 896.00,1024.00" fill="url(#secondary_gradient)" stroke="#000" stroke-width="1.5" opacity="0.8"/>
  <polygon points="896.00,1024.00 896.00,853.33 0.00,853.33" fill="url(#primary_gradient)" stroke="#000" stroke-width="1.5" opacity="0.8"/>
  <polygon points="896.00,1024.00 0.00,853.33 0.00,1024.00" fill="url(#secondary_gradient)" stroke="#000" stroke-width="1.5" opacity="0.8"/>
  <polygon points="0.00,853.33 0.00,682.67 128.00,682.67" fill="url(#primary_gradient)" stroke="#000" stroke-width="1.5" opacity="0.8"/>
  <polygon points="0.00,853.33 128.00,682.67 128.00,853.33" fill="url(#secondary_gradient)" stroke="#000" stroke-width="1.5" opacity="0.8"/>
  <polygon points="128.00,853.33 128.00,682.67 256.00,682.67" fill="url(#primary_gradient)" stroke="#000" stroke-width="1.5" opacity="0.8"/>
  <polygon points="128.00,853.33 256.00,682.67 256.00,853.33" fill="url(#secondary_gradient)" stroke="#000" stroke-width="1.5" opacity="0.8"/>
  <polygon points="256.00,853.33 256.00,682.67 384.00,682.67" fill="url(#primary_gradient)" stroke="#000" stroke-width="1.5" opacity="0.8"/>
  <polygon points="256.00,853.33 384.00,682.67 384.00,853.33" fill="url(#secondary_gradient)" stroke="#000" stroke-width="1.5" opacity="0.8"/>
  <polygon points="384.00,853.33 384.00,682.67 512.00,682.67" fill="url(#primary_gradient)" stroke="#000" stroke-width="1.5" opacity="0.8"/>
  <polygon points="384.00,853.33 512.00,682.67 512.00,853.33" fill="url(#secondary_gradient)" stroke="#000" stroke-width="1.5" opacity="0.8"/>
  <polygon points="512.00,853.33 512.00,682.67 640.00,682.67" fill="url(#primary_gradient)" stroke="#000" stroke-width="1.5" opacity="0.8"/>
  <polygon points="512.00,853.33 640.00,682.67 640.00,853.33" fill="url(#secondary_gradient)" stroke="#000" stroke-width="1.5" opacity="0.8"/>
  <polygon points="640.00,853.33 640.00,682.67 768.00,682.67" fill="url(#primary_gradient)" stroke="#000" stroke-width="1.5" opacity="0.8"/>
  <polygon points="640.00,853.33 768.00,682.67 768.00,853.33" fill="url(#secondary_gradient)" stroke="#000" stroke-width="1.5" opacity="0.8"/>
  <polygon points="768.00,853.33 768.00,682.67 896.00,682.67" fill="url(#primary_gradient)" stroke="#000" stroke-width="1.5" opacity="0.8"/>
  <polygon points="768.00,853.33 896.00,682.67 896.00,853.33" fill="url(#secondary_gradient)" stroke="#000" stroke-width="1.5" opacity="0.8"/>
  <polygon points="896.00,853.33 896.00,682.67 0.00,682.67" fill="url(#primary_gradient)" stroke="#000" stroke-width="1.5" opacity="0.8"/>
  <polygon points="896.00,853.33 0.00,682.67 0.00,853.33" fill="url(#secondary_gradient)" stroke="#000" stroke-width="1.5" opacity="0.8"/>
  <polygon points="0.00,682.67 0.00,512.00 128.00,512.00" fill="url(#primary_gradient)" stroke="#000" stroke-width="1.5" opacity="0.8"/>
  <polygon points="0.00,682.67 128.00,512.00 128.00,682.67" fill="url(#secondary_gradient)" stroke="#000" stroke-width="1.5" opacity="0.8"/>
  <polygon points="128.00,682.67 128.00,512.00 256.00,512.00" fill="url(#primary_gradient)" stroke="#000" stroke-width="1.5" opacity="0.8"/>
  <polygon points="128.00,682.67 256.00,512.00 256.00,682.67" fill="url(#secondary_gradient)" stroke="#000" stroke-width="1.5" opacity="0.8"/>
  <polygon points="256.00,682.67 256.00,512.00 384.00,512.00" fill="url(#primary_gradient)" stroke="#000" stroke-width="1.5" opacity="0.8"/>
  <polygon points="256.00,682.67 384.00,512.00 384.00,682.67" fill="url(#secondary_gradient)" stroke="#000" stroke-width="1.5" opacity="0.8"/>
  <polygon points="384.00,682.67 384.00,512.00 512.00,512.00" fill="url(#primary_gradient)" stroke="#000" stroke-width="1.5" opacity="0.8"/>
  <polygon points="384.00,682.67 512.00,512.00 512.00,682.67" fill="url(#secondary_gradient)" stroke="#000" stroke-width="1.5" opacity="0.8"/>
  <polygon points="512.00,682.67 512.00,512.00 640.00,512.00" fill="url(#primary_gradient)" stroke="#000" stroke-width="1.5" opacity="0.8"/>
  <polygon points="512.00,682.67 640.00,512.00 640.00,682.67" fill="url(#secondary_gradient)" stroke="#000" stroke-width="1.5" opacity="0.8"/>
  <polygon points="640.00,682.67 640.00,512.00 768.00,512.00" fill="url(#primary_gradient)" stroke="#000" stroke-width="1.5" opacity="0.8"/>
  <polygon points="640.00,682.67 768.00,512.00 768.00,682.67" fill="url(#secondary_gradient)" stroke="#000" stroke-width="1.5" opacity="0.8"/>
  <polygon points="768.00,682.67 768.00,512.00 896.00,512.00" fill="url(#primary_gradient)" stroke="#000" stroke-width="1.5" opacity="0.8"/>
  <polygon points="768.00,682.67 896.00,512.00 896.00,682.67" fill="url(#secondary_gradient)" stroke="#000" stroke-width="1.5" opacity="0.8"/>
  <polygon points="896.00,682.67 896.00,512.00 0.00,512.00" fill="url(#primary_gradient)" stroke="#000" stroke-width="1.5" opacity="0.8"/>
  <polygon points="896.00,682.67 0.00,512.00 0.00,682.67" fill="url(#secondary_gradient)" stroke="#000" stroke-width="1.5" opacity="0.8"/>
  <polygon points="0.00,512.00 0.00,341.33 128.00,341.33" fill="url(#primary_gradient)" stroke="#000" stroke-width="1.5" opacity="0.8"/>
  <polygon points="0.00,512.00 128.00,341.33 128.00,512.00" fill="url(#secondary_gradient)" stroke="#000" stroke-width="1.5" opacity="0.8"/>
  <polygon points="128.00,512.00 128.00,341.33 256.00,341.33" fill="url(#primary_gradient)" stroke="#000" stroke-width="1.5" opacity="0.8"/>
  <polygon points="128.00,512.00 256.00,341.33 256.00,512.00" fill="url(#secondary_gradient)" stroke="#000" stroke-width="1.5" opacity="0.8"/>
  <polygon points="256.00,512.00 256.00,341.33 384.00,341.33" fill="url(#primary_gradient)" stroke="#000" stroke-width="1.5" opacity="0.8"/>
  <polygon points="256.00,512.00 384.00,341.33 384.00,512.00" fill="url(#secondary_gradient)" stroke="#000" stroke-width="1.5" opacity="0.8"/>
  <polygon points="384.00,512.00 384.00,341.33 512.00,341.33" fill="url(#primary_gradient)" stroke="#000" stroke-width="1.5" opacity="0.8"/>
  <polygon points="384.00,512.00 512.00,341.33 512.00,512.00" fill="url(#secondary_gradient)" stroke="#000" stroke-width="1.5" opacity="0.8"/>
  <polygon points="512.00,512.00 512.00,341.33 640.00,341.33" fill="url(#primary_gradient)" stroke="#000" stroke-width="1.5" opacity="0.8"/>
  <polygon points="512.00,512.00 640.00,341.33 640.00,512.00" fill="url(#secondary_gradient)" stroke="#000" stroke-width="1.5" opacity="0.8"/>
  <polygon points="640.00,512.00 640.00,341.33 768.00,341.33" fill="url(#primary_gradient)" stroke="#000" stroke-width="1.5" opacity="0.8"/>
  <polygon points="640.00,512.00 768.00,341.33 768.00,512.00" fill="url(#secondary_gradient)" stroke="#000" stroke-width="1.5" opacity="0.8"/>
  <polygon points="768.00,512.00 768.00,341.33 896.00,341.33" fill="url(#primary_gradient)" stroke="#000" stroke-width="1.5" opacity="0.8"/>
  <polygon points="768.00,512.00 896.00,341.33 896.00,512.00" fill="url(#secondary_gradient)" stroke="#000" stroke-width="1.5" opacity="0.8"/>
  <polygon points="896.00,512.00 896.00,341.33 0.00,341.33" fill="url(#primary_gradient)" stroke="#000" stroke-width="1.5" opacity="0.8"/>
  <polygon points="896.00,512.00 0.00,341.33 0.00,512.00" fill="url(#secondary_gradient)" stroke="#000" stroke-width="1.5" opacity="0.8"/>
  <polygon points="0.00,341.33 0.00,170.67 128.00,170.67" fill="url(#primary_gradient)" stroke="#000" stroke-width="1.5" opacity="0.8"/>
  <polygon points="0.00,341.33 128.00,170.67 128.00,341.33" fill="url(#secondary_gradient)" stroke="#000" stroke-width="1.5" opacity="0.8"/>
  <polygon points="128.00,341.33 128.00,170.67 256.00,170.67" fill="url(#primary_gradient)" stroke="#000" stroke-width="1.5" opacity="0.8"/>
  <polygon points="128.00,341.33 256.00,170.67 256.00,341.33" fill="url(#secondary_gradient)" stroke="#000" stroke-width="1.5" opacity="0.8"/>
  <polygon points="256.00,341.33 256.00,170.67 384.00,170.67" fill="url(#primary_gradient)" stroke="#000" stroke-width="1.5" opacity="0.8"/>
  <polygon points="256.00,341.33 384.00,170.67 384.00,341.33" fill="url(#secondary_gradient)" stroke="#000" stroke-width="1.5" opacity="0.8"/>
  <polygon points="384.00,341.33 384.00,170.67 512.00,170.67" fill="url(#primary_gradient)" stroke="#000" stroke-width="1.5" opacity="0.8"/>
  <polygon points="384.00,341.33 512.00,170.67 512.00,341.33" fill="url(#secondary_gradient)" stroke="#000" stroke-width="1.5" opacity="0.8"/>
  <polygon points="512.00,341.33 512.00,170.67 640.00,170.67" fill="url(#primary_gradient)" stroke="#000" stroke-width="1.5" opacity="0.8"/>
  <polygon points="512.00,341.33 640.00,170.67 640.00,341.33" fill="url(#secondary_gradient)" stroke="#000" stroke-width="1.5" opacity="0.8"/>
  <polygon points="640.00,341.33 640.00,170.67 768.00,170.67" fill="url(#primary_gradient)" stroke="#000" stroke-width="1.5" opacity="0.8"/>
  <polygon points="640.00,341.33 768.00,170.67 768.00,341.33" fill="url(#secondary_gradient)" stroke="#000" stroke-width="1.5" opacity="0.8"/>
  <polygon points="768.00,341.33 768.00,170.67 896.00,170.67" fill="url(#primary_gradient)" stroke="#000" stroke-width="1.5" opacity="0.8"/>
  <polygon points="768.00,341.33 896.00,170.67 896.00,341.33" fill="url(#secondary_gradient)" stroke="#000" stroke-width="1.5" opacity="0.8"/>
  <polygon points="896.00,341.33 896.00,170.67 0.00,170.67" fill="url(#primary_gradient)" stroke="#000" stroke-width="1.5" opacity="0.8"/>
  <polygon points="896.00,341.33 0.00,170.67 0.00,341.33" fill="url(#secondary_gradient)" stroke="#000" stroke-width="1.5" opacity="0.8"/>
  <polygon points="0.00,170.67 0.00,0.00 128.00,0.00" fill="url(#primary_gradient)" stroke="#000" stroke-width="1.5" opacity="0.8"/>
  <polygon points="0.00,170.67 128.00,0.00 128.00,170.67" fill="url(#secondary_gradient)" stroke="#000" stroke-width="1.5" opacity="0.8"/>
  <polygon points="128.00,170.67 128.00,0.00 256.00,0.00" fill="url(#primary_gradient)" stroke="#000" stroke-width="1.5" opacity="0.8"/>
  <polygon points="128.00,170.67 256.00,0.00 256.00,170.67" fill="url(#secondary_gradient)" stroke="#000" stroke-width="1.5" opacity="0.8"/>
  <polygon points="256.00,170.67 256.00,0.00 384.00,0.00" fill="url(#primary_gradient)" stroke="#000" stroke-width="1.5" opacity="0.8"/>
  <polygon points="256.00,170.67 384.00,0.00 384.00,170.67" fill="url(#secondary_gradient)" stroke="#000" stroke-width="1.5" opacity="0.8"/>
  <polygon points="384.00,170.67 384.00,0.00 512.00,0.00" fill="url(#primary_gradient)" stroke="#000" stroke-width="1.5" opacity="0.8"/>
  <polygon points="384.00,170.67 512.00,0.00 512.00,170.67" fill="url(#secondary_gradient)" stroke="#000" stroke-width="1.5" opacity="0.8"/>
  <polygon points="512.00,170.67 512.00,0.00 640.00,0.00" fill="url(#primary_gradient)" stroke="#000" stroke-width="1.5" opacity="0.8"/>
  <polygon points="512.00,170.67 640.00,0.00 640.00,170.67" fill="url(#secondary_gradient)" stroke="#000" stroke-width="1.5" opacity="0.8"/>
  <polygon points="640.00,170.67 640.00,0.00 768.00,0.00" fill="url(#primary_gradient)" stroke="#000" stroke-width="1.5" opacity="0.8"/>
  <polygon points="640.00,170.67 768.00,0.00 768.00,170.67" fill="url(#secondary_gradient)" stroke="#000" stroke-width="1.5" opacity="0.8"/>
  <polygon points="768.00,170.67 768.00,0.00 896.00,0.00" fill="url(#primary_gradient)" stroke="#000" stroke-width="1.5" opacity="0.8"/>
  <polygon points="768.00,170.67 896.00,0.00 896.00,170.67" fill="url(#secondary_gradient)" stroke="#000" stroke-width="1.5" opacity="0.8"/>
  <polygon points="896.00,170.67 896.00,0.00 0.00,0.00" fill="url(#primary_gradient)" stroke="#000" stroke-width="1.5" opacity="0.8"/>
  <polygon points="896.00,170.67 0.00,0.00 0.00,170.67" fill="url(#secondary_gradient)" stroke="#000" stroke-width="1.5" opacity="0.8"/>
  <text x="10" y="30" fill="white" font-family="Arial" font-size="20" font-weight="bold">Sun UV Layout</text>
  <text x="10" y="50" fill="#fff" font-family="Arial" font-size="12">This is the UV layout for the mesh. Edit this file to apply textures.</text>
</svg>
