<svg xmlns="http://www.w3.org/2000/svg" width="1200" height="900" viewBox="0 0 1200 900">
  <style>
    text { font-family: monospace; fill: #8cf; font-size: 12px; }
    .title { font-size: 16px; fill: #fff; }
    .subtitle { font-size: 11px; fill: #668; }
    .label { font-size: 10px; fill: #9bd; }
    .dim { font-size: 10px; fill: #556; }
  </style>

  <!-- Background -->
  <rect width="1200" height="900" fill="#0a0c12"/>

  <!-- ==================== -->
  <!-- PANEL 1: Prospect Refinery (fully built starter station) -->
  <!-- ==================== -->
  <text x="160" y="30" class="title" text-anchor="middle">Prospect Refinery</text>
  <text x="160" y="46" class="subtitle" text-anchor="middle">5 modules, 8 slots</text>

  <g transform="translate(160, 240)">
    <!-- Dock radius circle -->
    <circle cx="0" cy="0" r="132" fill="none" stroke="#1a3a3a" stroke-width="1" stroke-dasharray="4,6"/>
    <text x="0" y="-138" class="dim" text-anchor="middle">dock_radius = 132</text>

    <!-- Module ring (radius 88) -->
    <circle cx="0" cy="0" r="88" fill="none" stroke="#1a2a2a" stroke-width="1" stroke-dasharray="2,4"/>

    <!-- Station core -->
    <circle cx="0" cy="0" r="62" fill="#0e1218" stroke="#2a6868" stroke-width="2"/>
    <circle cx="0" cy="0" r="8" fill="#3af0c0" opacity="0.6"/>
    <text x="0" y="4" font-family="monospace" font-size="7" fill="#0a0c12" text-anchor="middle">CORE</text>

    <!-- Slot positions (8 slots, 45deg apart) -->
    <!-- Slot 0 (angle 0, right): DOCK -->
    <line x1="62" y1="0" x2="68" y2="0" stroke="#2a4a4a" stroke-width="1"/>
    <g transform="translate(88, 0)">
      <!-- Dock: open bracket shape -->
      <rect x="-14" y="-18" width="28" height="36" rx="3" fill="none" stroke="#3af0c0" stroke-width="1.5"/>
      <line x1="-14" y1="-10" x2="-8" y2="-10" stroke="#3af0c0" stroke-width="1"/>
      <line x1="-14" y1="10" x2="-8" y2="10" stroke="#3af0c0" stroke-width="1"/>
      <rect x="14" y="-6" width="8" height="12" fill="none" stroke="#3af0c0" stroke-width="1" stroke-dasharray="2,2"/>
      <text x="0" y="30" class="label" text-anchor="middle">DOCK</text>
      <text x="0" y="40" class="dim" text-anchor="middle">slot 0</text>
    </g>
    <!-- Beam from core to dock -->
    <line x1="62" y1="0" x2="74" y2="0" stroke="#2a6868" stroke-width="1.5"/>

    <!-- Slot 1 (angle 45): ORE BUYER -->
    <g transform="rotate(45)">
      <line x1="62" y1="0" x2="74" y2="0" stroke="#2a6868" stroke-width="1.5"/>
      <g transform="translate(88, 0) rotate(-45)">
        <!-- Ore buyer: funnel shape -->
        <polygon points="-12,-16 12,-16 8,0 -8,0" fill="none" stroke="#e8a030" stroke-width="1.5"/>
        <rect x="-6" y="0" width="12" height="10" fill="none" stroke="#e8a030" stroke-width="1"/>
        <text x="0" y="24" class="label" text-anchor="middle" fill="#e8a030">ORE BUY</text>
        <text x="0" y="34" class="dim" text-anchor="middle">slot 1</text>
      </g>
    </g>

    <!-- Slot 2 (angle 90, top): FURNACE -->
    <g transform="rotate(90)">
      <line x1="62" y1="0" x2="74" y2="0" stroke="#2a6868" stroke-width="1.5"/>
      <g transform="translate(88, 0) rotate(-90)">
        <!-- Furnace: box with glow -->
        <rect x="-14" y="-14" width="28" height="28" rx="2" fill="#1a0800" stroke="#ff6020" stroke-width="1.5"/>
        <circle cx="0" cy="0" r="6" fill="#ff4010" opacity="0.4"/>
        <circle cx="0" cy="0" r="3" fill="#ffaa40" opacity="0.6"/>
        <line x1="-8" y1="8" x2="8" y2="8" stroke="#ff6020" stroke-width="1"/>
        <text x="0" y="24" class="label" text-anchor="middle" fill="#ff6020">FURNACE</text>
        <text x="0" y="34" class="dim" text-anchor="middle">slot 2</text>
      </g>
    </g>

    <!-- Slot 3 (angle 135): REPAIR BAY -->
    <g transform="rotate(135)">
      <line x1="62" y1="0" x2="74" y2="0" stroke="#2a6868" stroke-width="1.5"/>
      <g transform="translate(88, 0) rotate(-135)">
        <!-- Repair: wrench shape -->
        <line x1="-10" y1="-10" x2="10" y2="10" stroke="#40c0ff" stroke-width="2"/>
        <circle cx="-10" cy="-10" r="5" fill="none" stroke="#40c0ff" stroke-width="1.5"/>
        <rect x="6" y="6" width="8" height="8" rx="1" fill="none" stroke="#40c0ff" stroke-width="1.5"/>
        <text x="0" y="24" class="label" text-anchor="middle" fill="#40c0ff">REPAIR</text>
        <text x="0" y="34" class="dim" text-anchor="middle">slot 3</text>
      </g>
    </g>

    <!-- Slot 4 (angle 180, left): CONTRACT BOARD -->
    <g transform="rotate(180)">
      <line x1="62" y1="0" x2="74" y2="0" stroke="#2a6868" stroke-width="1.5"/>
      <g transform="translate(88, 0) rotate(-180)">
        <!-- Contract board: clipboard shape -->
        <rect x="-10" y="-14" width="20" height="28" rx="2" fill="none" stroke="#c0c080" stroke-width="1.5"/>
        <line x1="-6" y1="-6" x2="6" y2="-6" stroke="#c0c080" stroke-width="1"/>
        <line x1="-6" y1="0" x2="6" y2="0" stroke="#c0c080" stroke-width="1"/>
        <line x1="-6" y1="6" x2="4" y2="6" stroke="#c0c080" stroke-width="1"/>
        <text x="0" y="24" class="label" text-anchor="middle" fill="#c0c080">CONTRACTS</text>
        <text x="0" y="34" class="dim" text-anchor="middle">slot 4</text>
      </g>
    </g>

    <!-- Empty slots (5, 6, 7) shown as dashed circles -->
    <g transform="rotate(225)">
      <g transform="translate(88, 0) rotate(-225)">
        <circle cx="0" cy="0" r="14" fill="none" stroke="#1a2a2a" stroke-width="1" stroke-dasharray="3,3"/>
        <text x="0" y="24" class="dim" text-anchor="middle">slot 5</text>
      </g>
    </g>
    <g transform="rotate(270)">
      <g transform="translate(88, 0) rotate(-270)">
        <circle cx="0" cy="0" r="14" fill="none" stroke="#1a2a2a" stroke-width="1" stroke-dasharray="3,3"/>
        <text x="0" y="24" class="dim" text-anchor="middle">slot 6</text>
      </g>
    </g>
    <g transform="rotate(315)">
      <g transform="translate(88, 0) rotate(-315)">
        <circle cx="0" cy="0" r="14" fill="none" stroke="#1a2a2a" stroke-width="1" stroke-dasharray="3,3"/>
        <text x="0" y="24" class="dim" text-anchor="middle">slot 7</text>
      </g>
    </g>

    <!-- Ship approaching dock (slot 0) -->
    <g transform="translate(160, 0)">
      <polygon points="0,-6 10,6 -10,6" fill="#ffffff" stroke="none" transform="rotate(-90)"/>
      <text x="16" y="4" class="label" fill="#fff">player ship</text>
      <text x="16" y="14" class="dim">(approaching dock)</text>
    </g>
  </g>

  <!-- ==================== -->
  <!-- PANEL 2: Player outpost (small, being built) -->
  <!-- ==================== -->
  <text x="500" y="30" class="title" text-anchor="middle">Player Outpost</text>
  <text x="500" y="46" class="subtitle" text-anchor="middle">2 modules + 1 scaffold, 8 slots</text>

  <g transform="translate(500, 240)">
    <!-- Dock radius -->
    <circle cx="0" cy="0" r="96" fill="none" stroke="#1a3a3a" stroke-width="1" stroke-dasharray="4,6"/>

    <!-- Module ring -->
    <circle cx="0" cy="0" r="68" fill="none" stroke="#1a2a2a" stroke-width="1" stroke-dasharray="2,4"/>

    <!-- Station core (outpost, smaller) -->
    <circle cx="0" cy="0" r="40" fill="#0e1218" stroke="#2a6868" stroke-width="2"/>
    <circle cx="0" cy="0" r="6" fill="#3af0c0" opacity="0.4"/>

    <!-- Slot 0: DOCK (active) -->
    <g transform="rotate(0)">
      <line x1="40" y1="0" x2="54" y2="0" stroke="#2a6868" stroke-width="1.5"/>
      <g transform="translate(68, 0)">
        <rect x="-12" y="-14" width="24" height="28" rx="2" fill="none" stroke="#3af0c0" stroke-width="1.5"/>
        <rect x="12" y="-4" width="6" height="8" fill="none" stroke="#3af0c0" stroke-width="1" stroke-dasharray="2,2"/>
        <text x="0" y="24" class="label" text-anchor="middle">DOCK</text>
      </g>
    </g>

    <!-- Slot 1: SIGNAL RELAY (active) -->
    <g transform="rotate(45)">
      <line x1="40" y1="0" x2="54" y2="0" stroke="#2a6868" stroke-width="1.5"/>
      <g transform="translate(68, 0) rotate(-45)">
        <!-- Relay: antenna/dish -->
        <line x1="0" y1="12" x2="0" y2="-4" stroke="#80e0ff" stroke-width="1.5"/>
        <path d="M -10,-4 Q 0,-16 10,-4" fill="none" stroke="#80e0ff" stroke-width="1.5"/>
        <circle cx="0" cy="-4" r="2" fill="#80e0ff"/>
        <text x="0" y="24" class="label" text-anchor="middle" fill="#80e0ff">RELAY</text>
      </g>
    </g>

    <!-- Slot 2: FURNACE (scaffolding! dashed outline, progress bar) -->
    <g transform="rotate(90)">
      <line x1="40" y1="0" x2="54" y2="0" stroke="#2a4a2a" stroke-width="1" stroke-dasharray="3,3"/>
      <g transform="translate(68, 0) rotate(-90)">
        <!-- Scaffold: dashed outline -->
        <rect x="-14" y="-14" width="28" height="28" rx="2" fill="none" stroke="#ff6020" stroke-width="1" stroke-dasharray="4,3" opacity="0.5"/>
        <!-- Progress bar -->
        <rect x="-12" y="16" width="24" height="4" fill="#1a1a1a" stroke="#333" stroke-width="0.5"/>
        <rect x="-12" y="16" width="14" height="4" fill="#ff6020" opacity="0.7"/>
        <text x="0" y="30" class="label" text-anchor="middle" fill="#ff6020" opacity="0.7">FURNACE</text>
        <text x="0" y="40" class="dim" text-anchor="middle">58% built</text>
      </g>
    </g>

    <!-- Empty slots 3-7 -->
    <g transform="rotate(135)"><g transform="translate(68, 0) rotate(-135)"><circle r="12" fill="none" stroke="#1a2a2a" stroke-width="1" stroke-dasharray="3,3"/></g></g>
    <g transform="rotate(180)"><g transform="translate(68, 0) rotate(-180)"><circle r="12" fill="none" stroke="#1a2a2a" stroke-width="1" stroke-dasharray="3,3"/></g></g>
    <g transform="rotate(225)"><g transform="translate(68, 0) rotate(-225)"><circle r="12" fill="none" stroke="#1a2a2a" stroke-width="1" stroke-dasharray="3,3"/></g></g>
    <g transform="rotate(270)"><g transform="translate(68, 0) rotate(-270)"><circle r="12" fill="none" stroke="#1a2a2a" stroke-width="1" stroke-dasharray="3,3"/></g></g>
    <g transform="rotate(315)"><g transform="translate(68, 0) rotate(-315)"><circle r="12" fill="none" stroke="#1a2a2a" stroke-width="1" stroke-dasharray="3,3"/></g></g>
  </g>

  <!-- ==================== -->
  <!-- PANEL 3: BUILD MODE (placement preview) -->
  <!-- ==================== -->
  <text x="860" y="30" class="title" text-anchor="middle">Build Mode (Docked)</text>
  <text x="860" y="46" class="subtitle" text-anchor="middle">ghost preview at selected slot</text>

  <g transform="translate(860, 240)">
    <!-- Module ring -->
    <circle cx="0" cy="0" r="68" fill="none" stroke="#1a2a2a" stroke-width="1" stroke-dasharray="2,4"/>

    <!-- Station core -->
    <circle cx="0" cy="0" r="40" fill="#0e1218" stroke="#2a6868" stroke-width="2"/>
    <circle cx="0" cy="0" r="6" fill="#3af0c0" opacity="0.4"/>

    <!-- Existing modules (dock + relay) -->
    <g transform="rotate(0)">
      <line x1="40" y1="0" x2="54" y2="0" stroke="#2a6868" stroke-width="1.5"/>
      <g transform="translate(68, 0)">
        <rect x="-12" y="-14" width="24" height="28" rx="2" fill="none" stroke="#3af0c0" stroke-width="1.5"/>
      </g>
    </g>
    <g transform="rotate(45)">
      <line x1="40" y1="0" x2="54" y2="0" stroke="#2a6868" stroke-width="1.5"/>
      <g transform="translate(68, 0) rotate(-45)">
        <line x1="0" y1="12" x2="0" y2="-4" stroke="#80e0ff" stroke-width="1.5"/>
        <path d="M -10,-4 Q 0,-16 10,-4" fill="none" stroke="#80e0ff" stroke-width="1.5"/>
        <circle cx="0" cy="-4" r="2" fill="#80e0ff"/>
      </g>
    </g>

    <!-- GHOST PREVIEW: Frame Press at slot 5 (225 deg) - green, pulsing -->
    <g transform="rotate(225)">
      <line x1="40" y1="0" x2="54" y2="0" stroke="#30ff60" stroke-width="1" opacity="0.4"/>
      <g transform="translate(68, 0) rotate(-225)">
        <!-- Frame press ghost -->
        <rect x="-14" y="-10" width="28" height="20" rx="2" fill="#30ff6010" stroke="#30ff60" stroke-width="1.5" opacity="0.6"/>
        <line x1="-8" y1="0" x2="8" y2="0" stroke="#30ff60" stroke-width="1" opacity="0.6"/>
        <line x1="0" y1="-6" x2="0" y2="6" stroke="#30ff60" stroke-width="1" opacity="0.6"/>
        <!-- Selection highlight ring -->
        <circle cx="0" cy="0" r="20" fill="none" stroke="#30ff60" stroke-width="1" stroke-dasharray="4,4" opacity="0.5"/>
        <text x="0" y="32" font-family="monospace" font-size="11" fill="#30ff60" text-anchor="middle">FRAME PRESS</text>
        <text x="0" y="44" font-family="monospace" font-size="9" fill="#30ff60" text-anchor="middle" opacity="0.7">80 frames + 300 cr</text>
      </g>
    </g>

    <!-- Invalid slot indicator (slot 0 = occupied) -->
    <!-- Slot selection arrows -->
    <g transform="rotate(225) translate(68, 0) rotate(-225)">
      <!-- Left arrow (A key) -->
      <g transform="translate(-34, 0)">
        <polygon points="-6,0 2,-5 2,5" fill="#30ff60" opacity="0.4"/>
      </g>
      <!-- Right arrow (D key) -->
      <g transform="translate(34, 0)">
        <polygon points="6,0 -2,-5 -2,5" fill="#30ff60" opacity="0.4"/>
      </g>
    </g>

    <!-- Empty slot indicators -->
    <g transform="rotate(90)"><g transform="translate(68, 0) rotate(-90)"><circle r="12" fill="none" stroke="#1a2a2a" stroke-width="1" stroke-dasharray="3,3"/></g></g>
    <g transform="rotate(135)"><g transform="translate(68, 0) rotate(-135)"><circle r="12" fill="none" stroke="#1a2a2a" stroke-width="1" stroke-dasharray="3,3"/></g></g>
    <g transform="rotate(180)"><g transform="translate(68, 0) rotate(-180)"><circle r="12" fill="none" stroke="#1a2a2a" stroke-width="1" stroke-dasharray="3,3"/></g></g>
    <g transform="rotate(270)"><g transform="translate(68, 0) rotate(-270)"><circle r="12" fill="none" stroke="#1a2a2a" stroke-width="1" stroke-dasharray="3,3"/></g></g>
    <g transform="rotate(315)"><g transform="translate(68, 0) rotate(-315)"><circle r="12" fill="none" stroke="#1a2a2a" stroke-width="1" stroke-dasharray="3,3"/></g></g>
  </g>

  <!-- ==================== -->
  <!-- PANEL 4: Module type reference -->
  <!-- ==================== -->
  <text x="160" y="480" class="title" text-anchor="middle">Module Types (line art)</text>

  <!-- Module icons at larger scale -->
  <g transform="translate(40, 530)">
    <!-- DOCK -->
    <g transform="translate(0, 0)">
      <rect x="-18" y="-22" width="36" height="44" rx="3" fill="none" stroke="#3af0c0" stroke-width="2"/>
      <line x1="-18" y1="-12" x2="-10" y2="-12" stroke="#3af0c0" stroke-width="1.5"/>
      <line x1="-18" y1="12" x2="-10" y2="12" stroke="#3af0c0" stroke-width="1.5"/>
      <rect x="18" y="-8" width="10" height="16" fill="none" stroke="#3af0c0" stroke-width="1.5" stroke-dasharray="3,3"/>
      <text x="0" y="36" class="label" text-anchor="middle">Dock</text>
    </g>

    <!-- ORE BUYER -->
    <g transform="translate(80, 0)">
      <polygon points="-16,-20 16,-20 10,0 -10,0" fill="none" stroke="#e8a030" stroke-width="2"/>
      <rect x="-8" y="0" width="16" height="14" fill="none" stroke="#e8a030" stroke-width="1.5"/>
      <line x1="0" y1="14" x2="0" y2="20" stroke="#e8a030" stroke-width="1.5"/>
      <text x="0" y="36" class="label" text-anchor="middle" fill="#e8a030">Ore Buyer</text>
    </g>

    <!-- FURNACE -->
    <g transform="translate(160, 0)">
      <rect x="-18" y="-18" width="36" height="36" rx="3" fill="#1a0800" stroke="#ff6020" stroke-width="2"/>
      <circle cx="0" cy="0" r="8" fill="#ff4010" opacity="0.3"/>
      <circle cx="0" cy="0" r="4" fill="#ffaa40" opacity="0.5"/>
      <line x1="-10" y1="10" x2="10" y2="10" stroke="#ff6020" stroke-width="1.5"/>
      <text x="0" y="36" class="label" text-anchor="middle" fill="#ff6020">Furnace</text>
    </g>

    <!-- FRAME PRESS -->
    <g transform="translate(240, 0)">
      <rect x="-18" y="-12" width="36" height="24" rx="2" fill="none" stroke="#a0d0ff" stroke-width="2"/>
      <line x1="-10" y1="0" x2="10" y2="0" stroke="#a0d0ff" stroke-width="2"/>
      <line x1="0" y1="-8" x2="0" y2="8" stroke="#a0d0ff" stroke-width="2"/>
      <text x="0" y="36" class="label" text-anchor="middle" fill="#a0d0ff">Frame Press</text>
    </g>
  </g>

  <g transform="translate(40, 640)">
    <!-- LASER FAB -->
    <g transform="translate(0, 0)">
      <circle cx="0" cy="0" r="16" fill="none" stroke="#ff4060" stroke-width="2"/>
      <line x1="-20" y1="0" x2="20" y2="0" stroke="#ff4060" stroke-width="1"/>
      <line x1="0" y1="-20" x2="0" y2="20" stroke="#ff4060" stroke-width="1"/>
      <circle cx="0" cy="0" r="4" fill="#ff4060" opacity="0.4"/>
      <text x="0" y="36" class="label" text-anchor="middle" fill="#ff4060">Laser Fab</text>
    </g>

    <!-- TRACTOR FAB -->
    <g transform="translate(80, 0)">
      <circle cx="0" cy="0" r="16" fill="none" stroke="#40ffa0" stroke-width="2"/>
      <line x1="-20" y1="0" x2="20" y2="0" stroke="#40ffa0" stroke-width="1"/>
      <line x1="0" y1="-20" x2="0" y2="20" stroke="#40ffa0" stroke-width="1"/>
      <circle cx="0" cy="0" r="4" fill="#40ffa0" opacity="0.4"/>
      <text x="0" y="36" class="label" text-anchor="middle" fill="#40ffa0">Tractor Fab</text>
    </g>

    <!-- SIGNAL RELAY -->
    <g transform="translate(160, 0)">
      <line x1="0" y1="16" x2="0" y2="-6" stroke="#80e0ff" stroke-width="2"/>
      <path d="M -14,-6 Q 0,-24 14,-6" fill="none" stroke="#80e0ff" stroke-width="2"/>
      <circle cx="0" cy="-6" r="3" fill="#80e0ff"/>
      <!-- Signal waves -->
      <path d="M -8,-14 Q 0,-20 8,-14" fill="none" stroke="#80e0ff" stroke-width="1" opacity="0.4"/>
      <path d="M -12,-18 Q 0,-26 12,-18" fill="none" stroke="#80e0ff" stroke-width="1" opacity="0.2"/>
      <text x="0" y="36" class="label" text-anchor="middle" fill="#80e0ff">Signal Relay</text>
    </g>

    <!-- REPAIR BAY -->
    <g transform="translate(240, 0)">
      <line x1="-12" y1="-12" x2="12" y2="12" stroke="#40c0ff" stroke-width="2.5"/>
      <circle cx="-12" cy="-12" r="6" fill="none" stroke="#40c0ff" stroke-width="2"/>
      <rect x="7" y="7" width="10" height="10" rx="2" fill="none" stroke="#40c0ff" stroke-width="2"/>
      <text x="0" y="36" class="label" text-anchor="middle" fill="#40c0ff">Repair Bay</text>
    </g>
  </g>

  <!-- ==================== -->
  <!-- PANEL 5: Scale comparison -->
  <!-- ==================== -->
  <text x="860" y="480" class="title" text-anchor="middle">Scale Comparison</text>

  <g transform="translate(860, 620)">
    <!-- Player ship (actual size) -->
    <g transform="translate(-120, 0)">
      <polygon points="0,-12 8,8 -8,8" fill="#ffffff" stroke="none"/>
      <text x="0" y="24" class="label" text-anchor="middle" fill="#fff">Ship (r=12)</text>
    </g>

    <!-- Outpost core -->
    <g transform="translate(-40, 0)">
      <circle cx="0" cy="0" r="20" fill="#0e1218" stroke="#2a6868" stroke-width="1.5"/>
      <circle cx="0" cy="0" r="3" fill="#3af0c0" opacity="0.4"/>
      <text x="0" y="34" class="label" text-anchor="middle">Outpost core</text>
      <text x="0" y="44" class="dim" text-anchor="middle">(r=40 actual)</text>
    </g>

    <!-- Outpost with modules -->
    <g transform="translate(70, 0)">
      <circle cx="0" cy="0" r="20" fill="#0e1218" stroke="#2a6868" stroke-width="1.5"/>
      <!-- Module ring -->
      <circle cx="0" cy="0" r="34" fill="none" stroke="#1a2a2a" stroke-width="1" stroke-dasharray="2,3"/>
      <!-- Modules as small rects -->
      <g transform="rotate(0) translate(34, 0)"><rect x="-5" y="-5" width="10" height="10" fill="none" stroke="#3af0c0" stroke-width="1"/></g>
      <g transform="rotate(45) translate(34, 0)"><rect x="-5" y="-5" width="10" height="10" fill="none" stroke="#80e0ff" stroke-width="1"/></g>
      <g transform="rotate(90) translate(34, 0)"><rect x="-5" y="-5" width="10" height="10" fill="none" stroke="#ff6020" stroke-width="1"/></g>
      <text x="0" y="50" class="label" text-anchor="middle">Outpost + 3 modules</text>
      <text x="0" y="60" class="dim" text-anchor="middle">total ~110px radius</text>
    </g>
  </g>

  <!-- ==================== -->
  <!-- BUILD MODE HUD mockup -->
  <!-- ==================== -->
  <text x="560" y="480" class="title" text-anchor="middle">BUILD HUD Overlay</text>

  <g transform="translate(420, 510)">
    <rect x="0" y="0" width="280" height="180" fill="#0a0c12" stroke="#2a4a5a" stroke-width="1" rx="2"/>
    <rect x="0" y="0" width="280" height="20" fill="#12181e" stroke="#2a4a5a" stroke-width="1" rx="2"/>
    <text x="10" y="14" font-family="monospace" font-size="11" fill="#8cf">BUILD MODULE  [A/D] rotate  [ENTER] build</text>

    <text x="10" y="38" font-family="monospace" font-size="10" fill="#556">Select type:</text>
    <text x="10" y="52" font-family="monospace" font-size="10" fill="#30ff60">[1] Furnace (FE)    60 frames  200 cr</text>
    <text x="10" y="64" font-family="monospace" font-size="10" fill="#8cf">[2] Furnace (CU)   100 Cu ing  400 cr</text>
    <text x="10" y="76" font-family="monospace" font-size="10" fill="#8cf">[3] Furnace (CR)   140 Cr ing  600 cr</text>
    <text x="10" y="88" font-family="monospace" font-size="10" fill="#8cf">[4] Frame Press     80 frames  300 cr</text>
    <text x="10" y="100" font-family="monospace" font-size="10" fill="#556">[5] Laser Fab       80 Cu ing  300 cr</text>
    <text x="10" y="112" font-family="monospace" font-size="10" fill="#556">[6] Tractor Fab     80 Cr ing  300 cr</text>
    <text x="10" y="124" font-family="monospace" font-size="10" fill="#8cf">[7] Ore Buyer       40 frames  100 cr</text>
    <text x="10" y="136" font-family="monospace" font-size="10" fill="#8cf">[8] Signal Relay    40 frames  100 cr</text>

    <text x="10" y="158" font-family="monospace" font-size="10" fill="#30ff60">Slot 5 (empty)  --  Furnace (FE) selected</text>
    <text x="10" y="170" font-family="monospace" font-size="10" fill="#556">[ESC] cancel</text>
  </g>
</svg>
